# Tiled2Unity generated file. Do not modify by hand.
# Wavefront file for 'Subsolo_mesh_0002.obj'

# Vertices (Count = 16)
v 0 -3 -0.2
v -1 -3 -0.2
v -1 -2 -0.2
v 0 -2 -0.2
v -1 -3 -0.2
v -2 -3 -0.2
v -2 -2 -0.2
v -1 -2 -0.2
v -2 -3 -0.2
v -3 -3 -0.2
v -3 -2 -0.2
v -2 -2 -0.2
v -3 -3 -0.2
v -4 -3 -0.2
v -4 -2 -0.2
v -3 -2 -0.2

# Texture cooridinates (Count = 8)
vt 0 0.68
vt 0.025 0.68
vt 0.025 0.72
vt 0 0.72
vt 0.05 0.68
vt 0.05 0.72
vt 0.075 0.68
vt 0.075 0.72

# Normal
vn 0 0 -1

# Mesh description
g Subsolo_mesh_0002

# Faces
f 1/1/1 2/2/1 3/3/1 4/4/1
f 5/2/1 6/5/1 7/6/1 8/3/1
f 9/2/1 10/5/1 11/6/1 12/3/1
f 13/5/1 14/7/1 15/8/1 16/6/1

