# Tiled2Unity generated file. Do not modify by hand.
# Wavefront file for 'Subsolo_mesh_0003.obj'

# Vertices (Count = 584)
v 0 -1 -0.06666667
v -1 -1 -0.06666667
v -1 0 -0.06666667
v 0 0 -0.06666667
v -1 -1 -0.06666667
v -2 -1 -0.06666667
v -2 0 -0.06666667
v -1 0 -0.06666667
v -2 -1 -0.06666667
v -3 -1 -0.06666667
v -3 0 -0.06666667
v -2 0 -0.06666667
v -3 -1 -0.06666667
v -4 -1 -0.06666667
v -4 0 -0.06666667
v -3 0 -0.06666667
v -6 -1 -0.06666667
v -7 -1 -0.06666667
v -7 0 -0.06666667
v -6 0 -0.06666667
v -7 -1 -0.06666667
v -8 -1 -0.06666667
v -8 0 -0.06666667
v -7 0 -0.06666667
v -8 -1 -0.06666667
v -9 -1 -0.06666667
v -9 0 -0.06666667
v -8 0 -0.06666667
v -9 -1 -0.06666667
v -10 -1 -0.06666667
v -10 0 -0.06666667
v -9 0 -0.06666667
v 0 -2 -0.1333333
v -1 -2 -0.1333333
v -1 -1 -0.1333333
v 0 -1 -0.1333333
v -1 -2 -0.1333333
v -2 -2 -0.1333333
v -2 -1 -0.1333333
v -1 -1 -0.1333333
v -2 -2 -0.1333333
v -3 -2 -0.1333333
v -3 -1 -0.1333333
v -2 -1 -0.1333333
v -3 -2 -0.1333333
v -4 -2 -0.1333333
v -4 -1 -0.1333333
v -3 -1 -0.1333333
v -6 -2 -0.1333333
v -7 -2 -0.1333333
v -7 -1 -0.1333333
v -6 -1 -0.1333333
v -7 -2 -0.1333333
v -8 -2 -0.1333333
v -8 -1 -0.1333333
v -7 -1 -0.1333333
v -8 -2 -0.1333333
v -9 -2 -0.1333333
v -9 -1 -0.1333333
v -8 -1 -0.1333333
v -9 -2 -0.1333333
v -10 -2 -0.1333333
v -10 -1 -0.1333333
v -9 -1 -0.1333333
v 0 -3 -0.2
v -1 -3 -0.2
v -1 -2 -0.2
v 0 -2 -0.2
v -1 -3 -0.2
v -2 -3 -0.2
v -2 -2 -0.2
v -1 -2 -0.2
v -2 -3 -0.2
v -3 -3 -0.2
v -3 -2 -0.2
v -2 -2 -0.2
v -3 -3 -0.2
v -4 -3 -0.2
v -4 -2 -0.2
v -3 -2 -0.2
v -4 -3 -0.2
v -5 -3 -0.2
v -5 -2 -0.2
v -4 -2 -0.2
v -5 -3 -0.2
v -6 -3 -0.2
v -6 -2 -0.2
v -5 -2 -0.2
v -6 -3 -0.2
v -7 -3 -0.2
v -7 -2 -0.2
v -6 -2 -0.2
v -7 -3 -0.2
v -8 -3 -0.2
v -8 -2 -0.2
v -7 -2 -0.2
v -8 -3 -0.2
v -9 -3 -0.2
v -9 -2 -0.2
v -8 -2 -0.2
v -9 -3 -0.2
v -10 -3 -0.2
v -10 -2 -0.2
v -9 -2 -0.2
v 0 -4 -0.2666667
v -1 -4 -0.2666667
v -1 -3 -0.2666667
v 0 -3 -0.2666667
v -1 -4 -0.2666667
v -2 -4 -0.2666667
v -2 -3 -0.2666667
v -1 -3 -0.2666667
v -2 -4 -0.2666667
v -3 -4 -0.2666667
v -3 -3 -0.2666667
v -2 -3 -0.2666667
v -3 -4 -0.2666667
v -4 -4 -0.2666667
v -4 -3 -0.2666667
v -3 -3 -0.2666667
v -4 -4 -0.2666667
v -5 -4 -0.2666667
v -5 -3 -0.2666667
v -4 -3 -0.2666667
v -5 -4 -0.2666667
v -6 -4 -0.2666667
v -6 -3 -0.2666667
v -5 -3 -0.2666667
v -6 -4 -0.2666667
v -7 -4 -0.2666667
v -7 -3 -0.2666667
v -6 -3 -0.2666667
v -7 -4 -0.2666667
v -8 -4 -0.2666667
v -8 -3 -0.2666667
v -7 -3 -0.2666667
v -8 -4 -0.2666667
v -9 -4 -0.2666667
v -9 -3 -0.2666667
v -8 -3 -0.2666667
v -9 -4 -0.2666667
v -10 -4 -0.2666667
v -10 -3 -0.2666667
v -9 -3 -0.2666667
v 0 -5 -0.3333333
v -1 -5 -0.3333333
v -1 -4 -0.3333333
v 0 -4 -0.3333333
v -1 -5 -0.3333333
v -2 -5 -0.3333333
v -2 -4 -0.3333333
v -1 -4 -0.3333333
v -2 -5 -0.3333333
v -3 -5 -0.3333333
v -3 -4 -0.3333333
v -2 -4 -0.3333333
v -3 -5 -0.3333333
v -4 -5 -0.3333333
v -4 -4 -0.3333333
v -3 -4 -0.3333333
v -4 -5 -0.3333333
v -5 -5 -0.3333333
v -5 -4 -0.3333333
v -4 -4 -0.3333333
v -5 -5 -0.3333333
v -6 -5 -0.3333333
v -6 -4 -0.3333333
v -5 -4 -0.3333333
v -6 -5 -0.3333333
v -7 -5 -0.3333333
v -7 -4 -0.3333333
v -6 -4 -0.3333333
v -7 -5 -0.3333333
v -8 -5 -0.3333333
v -8 -4 -0.3333333
v -7 -4 -0.3333333
v -8 -5 -0.3333333
v -9 -5 -0.3333333
v -9 -4 -0.3333333
v -8 -4 -0.3333333
v -9 -5 -0.3333333
v -10 -5 -0.3333333
v -10 -4 -0.3333333
v -9 -4 -0.3333333
v 0 -6 -0.4
v -1 -6 -0.4
v -1 -5 -0.4
v 0 -5 -0.4
v -1 -6 -0.4
v -2 -6 -0.4
v -2 -5 -0.4
v -1 -5 -0.4
v -2 -6 -0.4
v -3 -6 -0.4
v -3 -5 -0.4
v -2 -5 -0.4
v -3 -6 -0.4
v -4 -6 -0.4
v -4 -5 -0.4
v -3 -5 -0.4
v -4 -6 -0.4
v -5 -6 -0.4
v -5 -5 -0.4
v -4 -5 -0.4
v -5 -6 -0.4
v -6 -6 -0.4
v -6 -5 -0.4
v -5 -5 -0.4
v -6 -6 -0.4
v -7 -6 -0.4
v -7 -5 -0.4
v -6 -5 -0.4
v -7 -6 -0.4
v -8 -6 -0.4
v -8 -5 -0.4
v -7 -5 -0.4
v -8 -6 -0.4
v -9 -6 -0.4
v -9 -5 -0.4
v -8 -5 -0.4
v -9 -6 -0.4
v -10 -6 -0.4
v -10 -5 -0.4
v -9 -5 -0.4
v 0 -7 -0.4666667
v -1 -7 -0.4666667
v -1 -6 -0.4666667
v 0 -6 -0.4666667
v -1 -7 -0.4666667
v -2 -7 -0.4666667
v -2 -6 -0.4666667
v -1 -6 -0.4666667
v -2 -7 -0.4666667
v -3 -7 -0.4666667
v -3 -6 -0.4666667
v -2 -6 -0.4666667
v -3 -7 -0.4666667
v -4 -7 -0.4666667
v -4 -6 -0.4666667
v -3 -6 -0.4666667
v -4 -7 -0.4666667
v -5 -7 -0.4666667
v -5 -6 -0.4666667
v -4 -6 -0.4666667
v -5 -7 -0.4666667
v -6 -7 -0.4666667
v -6 -6 -0.4666667
v -5 -6 -0.4666667
v -6 -7 -0.4666667
v -7 -7 -0.4666667
v -7 -6 -0.4666667
v -6 -6 -0.4666667
v -7 -7 -0.4666667
v -8 -7 -0.4666667
v -8 -6 -0.4666667
v -7 -6 -0.4666667
v -8 -7 -0.4666667
v -9 -7 -0.4666667
v -9 -6 -0.4666667
v -8 -6 -0.4666667
v -9 -7 -0.4666667
v -10 -7 -0.4666667
v -10 -6 -0.4666667
v -9 -6 -0.4666667
v 0 -8 -0.5333334
v -1 -8 -0.5333334
v -1 -7 -0.5333334
v 0 -7 -0.5333334
v -1 -8 -0.5333334
v -2 -8 -0.5333334
v -2 -7 -0.5333334
v -1 -7 -0.5333334
v -2 -8 -0.5333334
v -3 -8 -0.5333334
v -3 -7 -0.5333334
v -2 -7 -0.5333334
v -3 -8 -0.5333334
v -4 -8 -0.5333334
v -4 -7 -0.5333334
v -3 -7 -0.5333334
v -4 -8 -0.5333334
v -5 -8 -0.5333334
v -5 -7 -0.5333334
v -4 -7 -0.5333334
v -5 -8 -0.5333334
v -6 -8 -0.5333334
v -6 -7 -0.5333334
v -5 -7 -0.5333334
v -6 -8 -0.5333334
v -7 -8 -0.5333334
v -7 -7 -0.5333334
v -6 -7 -0.5333334
v -7 -8 -0.5333334
v -8 -8 -0.5333334
v -8 -7 -0.5333334
v -7 -7 -0.5333334
v -8 -8 -0.5333334
v -9 -8 -0.5333334
v -9 -7 -0.5333334
v -8 -7 -0.5333334
v -9 -8 -0.5333334
v -10 -8 -0.5333334
v -10 -7 -0.5333334
v -9 -7 -0.5333334
v 0 -9 -0.6
v -1 -9 -0.6
v -1 -8 -0.6
v 0 -8 -0.6
v -1 -9 -0.6
v -2 -9 -0.6
v -2 -8 -0.6
v -1 -8 -0.6
v -2 -9 -0.6
v -3 -9 -0.6
v -3 -8 -0.6
v -2 -8 -0.6
v -3 -9 -0.6
v -4 -9 -0.6
v -4 -8 -0.6
v -3 -8 -0.6
v -4 -9 -0.6
v -5 -9 -0.6
v -5 -8 -0.6
v -4 -8 -0.6
v -5 -9 -0.6
v -6 -9 -0.6
v -6 -8 -0.6
v -5 -8 -0.6
v -6 -9 -0.6
v -7 -9 -0.6
v -7 -8 -0.6
v -6 -8 -0.6
v -7 -9 -0.6
v -8 -9 -0.6
v -8 -8 -0.6
v -7 -8 -0.6
v -8 -9 -0.6
v -9 -9 -0.6
v -9 -8 -0.6
v -8 -8 -0.6
v -9 -9 -0.6
v -10 -9 -0.6
v -10 -8 -0.6
v -9 -8 -0.6
v 0 -10 -0.6666667
v -1 -10 -0.6666667
v -1 -9 -0.6666667
v 0 -9 -0.6666667
v -1 -10 -0.6666667
v -2 -10 -0.6666667
v -2 -9 -0.6666667
v -1 -9 -0.6666667
v -2 -10 -0.6666667
v -3 -10 -0.6666667
v -3 -9 -0.6666667
v -2 -9 -0.6666667
v -3 -10 -0.6666667
v -4 -10 -0.6666667
v -4 -9 -0.6666667
v -3 -9 -0.6666667
v -4 -10 -0.6666667
v -5 -10 -0.6666667
v -5 -9 -0.6666667
v -4 -9 -0.6666667
v -5 -10 -0.6666667
v -6 -10 -0.6666667
v -6 -9 -0.6666667
v -5 -9 -0.6666667
v -6 -10 -0.6666667
v -7 -10 -0.6666667
v -7 -9 -0.6666667
v -6 -9 -0.6666667
v -7 -10 -0.6666667
v -8 -10 -0.6666667
v -8 -9 -0.6666667
v -7 -9 -0.6666667
v -8 -10 -0.6666667
v -9 -10 -0.6666667
v -9 -9 -0.6666667
v -8 -9 -0.6666667
v -9 -10 -0.6666667
v -10 -10 -0.6666667
v -10 -9 -0.6666667
v -9 -9 -0.6666667
v 0 -11 -0.7333333
v -1 -11 -0.7333333
v -1 -10 -0.7333333
v 0 -10 -0.7333333
v -1 -11 -0.7333333
v -2 -11 -0.7333333
v -2 -10 -0.7333333
v -1 -10 -0.7333333
v -2 -11 -0.7333333
v -3 -11 -0.7333333
v -3 -10 -0.7333333
v -2 -10 -0.7333333
v -3 -11 -0.7333333
v -4 -11 -0.7333333
v -4 -10 -0.7333333
v -3 -10 -0.7333333
v -4 -11 -0.7333333
v -5 -11 -0.7333333
v -5 -10 -0.7333333
v -4 -10 -0.7333333
v -5 -11 -0.7333333
v -6 -11 -0.7333333
v -6 -10 -0.7333333
v -5 -10 -0.7333333
v -6 -11 -0.7333333
v -7 -11 -0.7333333
v -7 -10 -0.7333333
v -6 -10 -0.7333333
v -7 -11 -0.7333333
v -8 -11 -0.7333333
v -8 -10 -0.7333333
v -7 -10 -0.7333333
v -8 -11 -0.7333333
v -9 -11 -0.7333333
v -9 -10 -0.7333333
v -8 -10 -0.7333333
v -9 -11 -0.7333333
v -10 -11 -0.7333333
v -10 -10 -0.7333333
v -9 -10 -0.7333333
v 0 -12 -0.8
v -1 -12 -0.8
v -1 -11 -0.8
v 0 -11 -0.8
v -1 -12 -0.8
v -2 -12 -0.8
v -2 -11 -0.8
v -1 -11 -0.8
v -2 -12 -0.8
v -3 -12 -0.8
v -3 -11 -0.8
v -2 -11 -0.8
v -3 -12 -0.8
v -4 -12 -0.8
v -4 -11 -0.8
v -3 -11 -0.8
v -4 -12 -0.8
v -5 -12 -0.8
v -5 -11 -0.8
v -4 -11 -0.8
v -5 -12 -0.8
v -6 -12 -0.8
v -6 -11 -0.8
v -5 -11 -0.8
v -6 -12 -0.8
v -7 -12 -0.8
v -7 -11 -0.8
v -6 -11 -0.8
v -7 -12 -0.8
v -8 -12 -0.8
v -8 -11 -0.8
v -7 -11 -0.8
v -8 -12 -0.8
v -9 -12 -0.8
v -9 -11 -0.8
v -8 -11 -0.8
v -9 -12 -0.8
v -10 -12 -0.8
v -10 -11 -0.8
v -9 -11 -0.8
v 0 -13 -0.8666667
v -1 -13 -0.8666667
v -1 -12 -0.8666667
v 0 -12 -0.8666667
v -1 -13 -0.8666667
v -2 -13 -0.8666667
v -2 -12 -0.8666667
v -1 -12 -0.8666667
v -2 -13 -0.8666667
v -3 -13 -0.8666667
v -3 -12 -0.8666667
v -2 -12 -0.8666667
v -3 -13 -0.8666667
v -4 -13 -0.8666667
v -4 -12 -0.8666667
v -3 -12 -0.8666667
v -4 -13 -0.8666667
v -5 -13 -0.8666667
v -5 -12 -0.8666667
v -4 -12 -0.8666667
v -5 -13 -0.8666667
v -6 -13 -0.8666667
v -6 -12 -0.8666667
v -5 -12 -0.8666667
v -6 -13 -0.8666667
v -7 -13 -0.8666667
v -7 -12 -0.8666667
v -6 -12 -0.8666667
v -7 -13 -0.8666667
v -8 -13 -0.8666667
v -8 -12 -0.8666667
v -7 -12 -0.8666667
v -8 -13 -0.8666667
v -9 -13 -0.8666667
v -9 -12 -0.8666667
v -8 -12 -0.8666667
v -9 -13 -0.8666667
v -10 -13 -0.8666667
v -10 -12 -0.8666667
v -9 -12 -0.8666667
v 0 -14 -0.9333333
v -1 -14 -0.9333333
v -1 -13 -0.9333333
v 0 -13 -0.9333333
v -1 -14 -0.9333333
v -2 -14 -0.9333333
v -2 -13 -0.9333333
v -1 -13 -0.9333333
v -2 -14 -0.9333333
v -3 -14 -0.9333333
v -3 -13 -0.9333333
v -2 -13 -0.9333333
v -3 -14 -0.9333333
v -4 -14 -0.9333333
v -4 -13 -0.9333333
v -3 -13 -0.9333333
v -4 -14 -0.9333333
v -5 -14 -0.9333333
v -5 -13 -0.9333333
v -4 -13 -0.9333333
v -5 -14 -0.9333333
v -6 -14 -0.9333333
v -6 -13 -0.9333333
v -5 -13 -0.9333333
v -6 -14 -0.9333333
v -7 -14 -0.9333333
v -7 -13 -0.9333333
v -6 -13 -0.9333333
v -7 -14 -0.9333333
v -8 -14 -0.9333333
v -8 -13 -0.9333333
v -7 -13 -0.9333333
v -8 -14 -0.9333333
v -9 -14 -0.9333333
v -9 -13 -0.9333333
v -8 -13 -0.9333333
v -9 -14 -0.9333333
v -10 -14 -0.9333333
v -10 -13 -0.9333333
v -9 -13 -0.9333333
v 0 -15 -1
v -1 -15 -1
v -1 -14 -1
v 0 -14 -1
v -1 -15 -1
v -2 -15 -1
v -2 -14 -1
v -1 -14 -1
v -2 -15 -1
v -3 -15 -1
v -3 -14 -1
v -2 -14 -1
v -3 -15 -1
v -4 -15 -1
v -4 -14 -1
v -3 -14 -1
v -4 -15 -1
v -5 -15 -1
v -5 -14 -1
v -4 -14 -1
v -5 -15 -1
v -6 -15 -1
v -6 -14 -1
v -5 -14 -1
v -6 -15 -1
v -7 -15 -1
v -7 -14 -1
v -6 -14 -1
v -7 -15 -1
v -8 -15 -1
v -8 -14 -1
v -7 -14 -1
v -8 -15 -1
v -9 -15 -1
v -9 -14 -1
v -8 -14 -1
v -9 -15 -1
v -10 -15 -1
v -10 -14 -1
v -9 -14 -1

# Texture cooridinates (Count = 51)
vt 0.15 0.96
vt 0.125 0.96
vt 0.125 0.92
vt 0.15 0.92
vt 0.1 0.96
vt 0.1 0.92
vt 0.125 1
vt 0.1 1
vt 0.15 1
vt 0.3 0.72
vt 0.325 0.72
vt 0.325 0.76
vt 0.3 0.76
vt 0.35 0.72
vt 0.35 0.76
vt 0.275 0.72
vt 0.275 0.76
vt 0 0.88
vt 0.025 0.88
vt 0.025 0.92
vt 0 0.92
vt 0 0.84
vt 0.025 0.84
vt 0 0.96
vt 0.025 0.96
vt 0.025 1
vt 0 1
vt 0 0.68
vt 0.025 0.68
vt 0.025 0.72
vt 0 0.72
vt 0.05 0.68
vt 0.05 0.72
vt 0.075 0.68
vt 0.075 0.72
vt 0 0.6
vt 0.025 0.6
vt 0.025 0.64
vt 0 0.64
vt 0.05 0.6
vt 0.05 0.64
vt 0.075 0.6
vt 0.075 0.64
vt 0.3 0.8
vt 0.325 0.8
vt 0.325 0.84
vt 0.3 0.84
vt 0.05 0.92
vt 0.075 0.92
vt 0.075 0.96
vt 0.05 0.96

# Normal
vn 0 0 -1

# Mesh description
g Subsolo_mesh_0003

# Faces
f 1/1/1 2/2/1 3/3/1 4/4/1
f 5/2/1 6/5/1 7/6/1 8/3/1
f 9/5/1 10/2/1 11/7/1 12/8/1
f 13/2/1 14/1/1 15/9/1 16/7/1
f 17/5/1 18/2/1 19/7/1 20/8/1
f 21/2/1 22/1/1 23/9/1 24/7/1
f 25/5/1 26/2/1 27/7/1 28/8/1
f 29/2/1 30/1/1 31/9/1 32/7/1
f 33/9/1 34/7/1 35/2/1 36/1/1
f 37/7/1 38/8/1 39/5/1 40/2/1
f 41/6/1 42/3/1 43/2/1 44/5/1
f 45/3/1 46/4/1 47/1/1 48/2/1
f 49/6/1 50/3/1 51/2/1 52/5/1
f 53/3/1 54/4/1 55/1/1 56/2/1
f 57/6/1 58/3/1 59/2/1 60/5/1
f 61/3/1 62/4/1 63/1/1 64/2/1
f 65/10/1 66/11/1 67/12/1 68/13/1
f 69/10/1 70/11/1 71/12/1 72/13/1
f 73/10/1 74/11/1 75/12/1 76/13/1
f 77/10/1 78/11/1 79/12/1 80/13/1
f 81/11/1 82/14/1 83/15/1 84/12/1
f 85/16/1 86/10/1 87/13/1 88/17/1
f 89/10/1 90/11/1 91/12/1 92/13/1
f 93/10/1 94/11/1 95/12/1 96/13/1
f 97/10/1 98/11/1 99/12/1 100/13/1
f 101/10/1 102/11/1 103/12/1 104/13/1
f 105/18/1 106/19/1 107/20/1 108/21/1
f 109/22/1 110/23/1 111/19/1 112/18/1
f 113/18/1 114/19/1 115/20/1 116/21/1
f 117/22/1 118/23/1 119/19/1 120/18/1
f 121/18/1 122/19/1 123/20/1 124/21/1
f 125/22/1 126/23/1 127/19/1 128/18/1
f 129/18/1 130/19/1 131/20/1 132/21/1
f 133/22/1 134/23/1 135/19/1 136/18/1
f 137/18/1 138/19/1 139/20/1 140/21/1
f 141/22/1 142/23/1 143/19/1 144/18/1
f 145/24/1 146/25/1 147/26/1 148/27/1
f 149/28/1 150/29/1 151/30/1 152/31/1
f 153/29/1 154/32/1 155/33/1 156/30/1
f 157/29/1 158/32/1 159/33/1 160/30/1
f 161/29/1 162/32/1 163/33/1 164/30/1
f 165/29/1 166/32/1 167/33/1 168/30/1
f 169/29/1 170/32/1 171/33/1 172/30/1
f 173/29/1 174/32/1 175/33/1 176/30/1
f 177/29/1 178/32/1 179/33/1 180/30/1
f 181/32/1 182/34/1 183/35/1 184/33/1
f 185/24/1 186/25/1 187/26/1 188/27/1
f 189/36/1 190/37/1 191/38/1 192/39/1
f 193/37/1 194/40/1 195/41/1 196/38/1
f 197/37/1 198/40/1 199/41/1 200/38/1
f 201/37/1 202/40/1 203/41/1 204/38/1
f 205/37/1 206/40/1 207/41/1 208/38/1
f 209/37/1 210/40/1 211/41/1 212/38/1
f 213/37/1 214/40/1 215/41/1 216/38/1
f 217/37/1 218/40/1 219/41/1 220/38/1
f 221/40/1 222/42/1 223/43/1 224/41/1
f 225/18/1 226/19/1 227/20/1 228/21/1
f 229/22/1 230/23/1 231/19/1 232/18/1
f 233/18/1 234/19/1 235/20/1 236/21/1
f 237/22/1 238/23/1 239/19/1 240/18/1
f 241/18/1 242/19/1 243/20/1 244/21/1
f 245/22/1 246/23/1 247/19/1 248/18/1
f 249/18/1 250/19/1 251/20/1 252/21/1
f 253/22/1 254/23/1 255/19/1 256/18/1
f 257/18/1 258/19/1 259/20/1 260/21/1
f 261/22/1 262/23/1 263/19/1 264/18/1
f 265/28/1 266/29/1 267/30/1 268/31/1
f 269/29/1 270/32/1 271/33/1 272/30/1
f 273/29/1 274/32/1 275/33/1 276/30/1
f 277/29/1 278/32/1 279/33/1 280/30/1
f 281/29/1 282/32/1 283/33/1 284/30/1
f 285/29/1 286/32/1 287/33/1 288/30/1
f 289/29/1 290/32/1 291/33/1 292/30/1
f 293/29/1 294/32/1 295/33/1 296/30/1
f 297/32/1 298/34/1 299/35/1 300/33/1
f 301/24/1 302/25/1 303/26/1 304/27/1
f 305/36/1 306/37/1 307/38/1 308/39/1
f 309/37/1 310/40/1 311/41/1 312/38/1
f 313/37/1 314/40/1 315/41/1 316/38/1
f 317/37/1 318/40/1 319/41/1 320/38/1
f 321/37/1 322/40/1 323/41/1 324/38/1
f 325/37/1 326/40/1 327/41/1 328/38/1
f 329/37/1 330/40/1 331/41/1 332/38/1
f 333/37/1 334/40/1 335/41/1 336/38/1
f 337/40/1 338/42/1 339/43/1 340/41/1
f 341/24/1 342/25/1 343/26/1 344/27/1
f 345/18/1 346/19/1 347/20/1 348/21/1
f 349/22/1 350/23/1 351/19/1 352/18/1
f 353/18/1 354/19/1 355/20/1 356/21/1
f 357/22/1 358/23/1 359/19/1 360/18/1
f 361/18/1 362/19/1 363/20/1 364/21/1
f 365/22/1 366/23/1 367/19/1 368/18/1
f 369/18/1 370/19/1 371/20/1 372/21/1
f 373/22/1 374/23/1 375/19/1 376/18/1
f 377/18/1 378/19/1 379/20/1 380/21/1
f 381/22/1 382/23/1 383/19/1 384/18/1
f 385/24/1 386/25/1 387/26/1 388/27/1
f 389/28/1 390/29/1 391/30/1 392/31/1
f 393/29/1 394/32/1 395/33/1 396/30/1
f 397/29/1 398/32/1 399/33/1 400/30/1
f 401/29/1 402/32/1 403/33/1 404/30/1
f 405/29/1 406/32/1 407/33/1 408/30/1
f 409/29/1 410/32/1 411/33/1 412/30/1
f 413/29/1 414/32/1 415/33/1 416/30/1
f 417/29/1 418/32/1 419/33/1 420/30/1
f 421/32/1 422/34/1 423/35/1 424/33/1
f 425/24/1 426/25/1 427/26/1 428/27/1
f 429/36/1 430/37/1 431/38/1 432/39/1
f 433/37/1 434/40/1 435/41/1 436/38/1
f 437/37/1 438/40/1 439/41/1 440/38/1
f 441/37/1 442/40/1 443/41/1 444/38/1
f 445/37/1 446/40/1 447/41/1 448/38/1
f 449/37/1 450/40/1 451/41/1 452/38/1
f 453/37/1 454/40/1 455/41/1 456/38/1
f 457/37/1 458/40/1 459/41/1 460/38/1
f 461/40/1 462/42/1 463/43/1 464/41/1
f 465/18/1 466/19/1 467/20/1 468/21/1
f 469/22/1 470/23/1 471/19/1 472/18/1
f 473/18/1 474/19/1 475/20/1 476/21/1
f 477/22/1 478/23/1 479/19/1 480/18/1
f 481/18/1 482/19/1 483/20/1 484/21/1
f 485/22/1 486/23/1 487/19/1 488/18/1
f 489/18/1 490/19/1 491/20/1 492/21/1
f 493/22/1 494/23/1 495/19/1 496/18/1
f 497/18/1 498/19/1 499/20/1 500/21/1
f 501/22/1 502/23/1 503/19/1 504/18/1
f 505/44/1 506/45/1 507/46/1 508/47/1
f 509/44/1 510/45/1 511/46/1 512/47/1
f 513/44/1 514/45/1 515/46/1 516/47/1
f 517/44/1 518/45/1 519/46/1 520/47/1
f 521/44/1 522/45/1 523/46/1 524/47/1
f 525/44/1 526/45/1 527/46/1 528/47/1
f 529/44/1 530/45/1 531/46/1 532/47/1
f 533/44/1 534/45/1 535/46/1 536/47/1
f 537/44/1 538/45/1 539/46/1 540/47/1
f 541/44/1 542/45/1 543/46/1 544/47/1
f 545/48/1 546/49/1 547/50/1 548/51/1
f 549/48/1 550/49/1 551/50/1 552/51/1
f 553/48/1 554/49/1 555/50/1 556/51/1
f 557/48/1 558/49/1 559/50/1 560/51/1
f 561/48/1 562/49/1 563/50/1 564/51/1
f 565/48/1 566/49/1 567/50/1 568/51/1
f 569/48/1 570/49/1 571/50/1 572/51/1
f 573/48/1 574/49/1 575/50/1 576/51/1
f 577/48/1 578/49/1 579/50/1 580/51/1
f 581/48/1 582/49/1 583/50/1 584/51/1

