# Tiled2Unity generated file. Do not modify by hand.
# Wavefront file for 'Subsolo_mesh_0004.obj'

# Vertices (Count = 16)
v -4 -1 -0.06666667
v -5 -1 -0.06666667
v -5 0 -0.06666667
v -4 0 -0.06666667
v -5 -1 -0.06666667
v -6 -1 -0.06666667
v -6 0 -0.06666667
v -5 0 -0.06666667
v -4 -2 -0.1333333
v -5 -2 -0.1333333
v -5 -1 -0.1333333
v -4 -1 -0.1333333
v -5 -2 -0.1333333
v -6 -2 -0.1333333
v -6 -1 -0.1333333
v -5 -1 -0.1333333

# Texture cooridinates (Count = 9)
vt 0.35 0.2777778
vt 0.375 0.2777778
vt 0.375 0.3055556
vt 0.35 0.3055556
vt 0.4 0.2777778
vt 0.4 0.3055556
vt 0.35 0.25
vt 0.375 0.25
vt 0.4 0.25

# Normal
vn 0 0 -1

# Mesh description
g Subsolo_mesh_0004

# Faces
f 1/1/1 2/2/1 3/3/1 4/4/1
f 5/2/1 6/5/1 7/6/1 8/3/1
f 9/7/1 10/8/1 11/2/1 12/1/1
f 13/8/1 14/9/1 15/5/1 16/2/1

