# Tiled2Unity generated file. Do not modify by hand.
# Wavefront file for 'Floresta_mesh_0014.obj'

# Vertices (Count = 48)
v -48 -16 0
v -64 -16 0
v -64 0 0
v -48 0 0
v -48 -32 0
v -64 -32 0
v -64 -16 0
v -48 -16 0
v -48 -48 0
v -64 -48 0
v -64 -32 0
v -48 -32 0
v -48 -64 0
v -64 -64 0
v -64 -48 0
v -48 -48 0
v -160 -64 0
v -176 -64 0
v -176 -48 0
v -160 -48 0
v -48 -80 0
v -64 -80 0
v -64 -64 0
v -48 -64 0
v -48 -96 0
v -64 -96 0
v -64 -80 0
v -48 -80 0
v -48 -112 0
v -64 -112 0
v -64 -96 0
v -48 -96 0
v 0 -128 0
v -16 -128 0
v -16 -112 0
v 0 -112 0
v -16 -128 0
v -32 -128 0
v -32 -112 0
v -16 -112 0
v -32 -128 0
v -48 -128 0
v -48 -112 0
v -32 -112 0
v -304 -272 0
v -320 -272 0
v -320 -256 0
v -304 -256 0

# Texture cooridinates (Count = 16)
vt 0.175 0.6111111
vt 0.2 0.6111111
vt 0.2 0.6388889
vt 0.175 0.6388889
vt 0.175 0.5833334
vt 0.2 0.5833334
vt 0.85 0.9166667
vt 0.875 0.9166667
vt 0.875 0.9444444
vt 0.85 0.9444444
vt 0.15 0.5555556
vt 0.175 0.5555556
vt 0.15 0.5833334
vt 0.9 0.9444444
vt 0.9 0.9722222
vt 0.875 0.9722222

# Normal
vn 0 0 -1

# Mesh description
g Floresta_mesh_0014

# Faces
f 1/1/1 2/2/1 3/3/1 4/4/1
f 5/5/1 6/6/1 7/2/1 8/1/1
f 9/5/1 10/6/1 11/2/1 12/1/1
f 13/5/1 14/6/1 15/2/1 16/1/1
f 17/7/1 18/8/1 19/9/1 20/10/1
f 21/5/1 22/6/1 23/2/1 24/1/1
f 25/5/1 26/6/1 27/2/1 28/1/1
f 29/5/1 30/6/1 31/2/1 32/1/1
f 33/11/1 34/12/1 35/5/1 36/13/1
f 37/11/1 38/12/1 39/5/1 40/13/1
f 41/11/1 42/12/1 43/5/1 44/13/1
f 45/9/1 46/14/1 47/15/1 48/16/1

