# Tiled2Unity generated file. Do not modify by hand.
# Wavefront file for 'Floresta_mesh_0012.obj'

# Vertices (Count = 752)
v 0 -16 0
v -16 -16 0
v -16 0 0
v 0 0 0
v -16 -16 0
v -32 -16 0
v -32 0 0
v -16 0 0
v -32 -16 0
v -48 -16 0
v -48 0 0
v -32 0 0
v -112 -16 0
v -128 -16 0
v -128 0 0
v -112 0 0
v -160 -16 0
v -176 -16 0
v -176 0 0
v -160 0 0
v -208 -16 0
v -224 -16 0
v -224 0 0
v -208 0 0
v -224 -16 0
v -240 -16 0
v -240 0 0
v -224 0 0
v -240 -16 0
v -256 -16 0
v -256 0 0
v -240 0 0
v -256 -16 0
v -272 -16 0
v -272 0 0
v -256 0 0
v -272 -16 0
v -288 -16 0
v -288 0 0
v -272 0 0
v -288 -16 0
v -304 -16 0
v -304 0 0
v -288 0 0
v -304 -16 0
v -320 -16 0
v -320 0 0
v -304 0 0
v 0 -32 0
v -16 -32 0
v -16 -16 0
v 0 -16 0
v -16 -32 0
v -32 -32 0
v -32 -16 0
v -16 -16 0
v -32 -32 0
v -48 -32 0
v -48 -16 0
v -32 -16 0
v -64 -32 0
v -80 -32 0
v -80 -16 0
v -64 -16 0
v -80 -32 0
v -96 -32 0
v -96 -16 0
v -80 -16 0
v -112 -32 0
v -128 -32 0
v -128 -16 0
v -112 -16 0
v -160 -32 0
v -176 -32 0
v -176 -16 0
v -160 -16 0
v -240 -32 0
v -256 -32 0
v -256 -16 0
v -240 -16 0
v -256 -32 0
v -272 -32 0
v -272 -16 0
v -256 -16 0
v -272 -32 0
v -288 -32 0
v -288 -16 0
v -272 -16 0
v -288 -32 0
v -304 -32 0
v -304 -16 0
v -288 -16 0
v -304 -32 0
v -320 -32 0
v -320 -16 0
v -304 -16 0
v 0 -48 0
v -16 -48 0
v -16 -32 0
v 0 -32 0
v -16 -48 0
v -32 -48 0
v -32 -32 0
v -16 -32 0
v -32 -48 0
v -48 -48 0
v -48 -32 0
v -32 -32 0
v -64 -48 0
v -80 -48 0
v -80 -32 0
v -64 -32 0
v -80 -48 0
v -96 -48 0
v -96 -32 0
v -80 -32 0
v -112 -48 0
v -128 -48 0
v -128 -32 0
v -112 -32 0
v -160 -48 0
v -176 -48 0
v -176 -32 0
v -160 -32 0
v -176 -48 0
v -192 -48 0
v -192 -32 0
v -176 -32 0
v -272 -48 0
v -288 -48 0
v -288 -32 0
v -272 -32 0
v -288 -48 0
v -304 -48 0
v -304 -32 0
v -288 -32 0
v -304 -48 0
v -320 -48 0
v -320 -32 0
v -304 -32 0
v 0 -64 0
v -16 -64 0
v -16 -48 0
v 0 -48 0
v -16 -64 0
v -32 -64 0
v -32 -48 0
v -16 -48 0
v -32 -64 0
v -48 -64 0
v -48 -48 0
v -32 -48 0
v -112 -64 0
v -128 -64 0
v -128 -48 0
v -112 -48 0
v -160 -64 0
v -176 -64 0
v -176 -48 0
v -160 -48 0
v 0 -80 0
v -16 -80 0
v -16 -64 0
v 0 -64 0
v -16 -80 0
v -32 -80 0
v -32 -64 0
v -16 -64 0
v -32 -80 0
v -48 -80 0
v -48 -64 0
v -32 -64 0
v -112 -80 0
v -128 -80 0
v -128 -64 0
v -112 -64 0
v -128 -80 0
v -144 -80 0
v -144 -64 0
v -128 -64 0
v -144 -80 0
v -160 -80 0
v -160 -64 0
v -144 -64 0
v -160 -80 0
v -176 -80 0
v -176 -64 0
v -160 -64 0
v 0 -96 0
v -16 -96 0
v -16 -80 0
v 0 -80 0
v -16 -96 0
v -32 -96 0
v -32 -80 0
v -16 -80 0
v -32 -96 0
v -48 -96 0
v -48 -80 0
v -32 -80 0
v -64 -96 0
v -80 -96 0
v -80 -80 0
v -64 -80 0
v -176 -96 0
v -192 -96 0
v -192 -80 0
v -176 -80 0
v -288 -96 0
v -304 -96 0
v -304 -80 0
v -288 -80 0
v 0 -112 0
v -16 -112 0
v -16 -96 0
v 0 -96 0
v -16 -112 0
v -32 -112 0
v -32 -96 0
v -16 -96 0
v -32 -112 0
v -48 -112 0
v -48 -96 0
v -32 -96 0
v -96 -112 0
v -112 -112 0
v -112 -96 0
v -96 -96 0
v -176 -112 0
v -192 -112 0
v -192 -96 0
v -176 -96 0
v -272 -112 0
v -288 -112 0
v -288 -96 0
v -272 -96 0
v -288 -112 0
v -304 -112 0
v -304 -96 0
v -288 -96 0
v -304 -112 0
v -320 -112 0
v -320 -96 0
v -304 -96 0
v 0 -128 0
v -16 -128 0
v -16 -112 0
v 0 -112 0
v -16 -128 0
v -32 -128 0
v -32 -112 0
v -16 -112 0
v -32 -128 0
v -48 -128 0
v -48 -112 0
v -32 -112 0
v -176 -128 0
v -192 -128 0
v -192 -112 0
v -176 -112 0
v -272 -128 0
v -288 -128 0
v -288 -112 0
v -272 -112 0
v -288 -128 0
v -304 -128 0
v -304 -112 0
v -288 -112 0
v -304 -128 0
v -320 -128 0
v -320 -112 0
v -304 -112 0
v 0 -144 0
v -16 -144 0
v -16 -128 0
v 0 -128 0
v -16 -144 0
v -32 -144 0
v -32 -128 0
v -16 -128 0
v -32 -144 0
v -48 -144 0
v -48 -128 0
v -32 -128 0
v -48 -144 0
v -64 -144 0
v -64 -128 0
v -48 -128 0
v -96 -144 0
v -112 -144 0
v -112 -128 0
v -96 -128 0
v -192 -144 0
v -208 -144 0
v -208 -128 0
v -192 -128 0
v -208 -144 0
v -224 -144 0
v -224 -128 0
v -208 -128 0
v -224 -144 0
v -240 -144 0
v -240 -128 0
v -224 -128 0
v -256 -144 0
v -272 -144 0
v -272 -128 0
v -256 -128 0
v -272 -144 0
v -288 -144 0
v -288 -128 0
v -272 -128 0
v -288 -144 0
v -304 -144 0
v -304 -128 0
v -288 -128 0
v -304 -144 0
v -320 -144 0
v -320 -128 0
v -304 -128 0
v 0 -160 0
v -16 -160 0
v -16 -144 0
v 0 -144 0
v -16 -160 0
v -32 -160 0
v -32 -144 0
v -16 -144 0
v -32 -160 0
v -48 -160 0
v -48 -144 0
v -32 -144 0
v -80 -160 0
v -96 -160 0
v -96 -144 0
v -80 -144 0
v -192 -160 0
v -208 -160 0
v -208 -144 0
v -192 -144 0
v -208 -160 0
v -224 -160 0
v -224 -144 0
v -208 -144 0
v -224 -160 0
v -240 -160 0
v -240 -144 0
v -224 -144 0
v -272 -160 0
v -288 -160 0
v -288 -144 0
v -272 -144 0
v -288 -160 0
v -304 -160 0
v -304 -144 0
v -288 -144 0
v -304 -160 0
v -320 -160 0
v -320 -144 0
v -304 -144 0
v 0 -176 0
v -16 -176 0
v -16 -160 0
v 0 -160 0
v -16 -176 0
v -32 -176 0
v -32 -160 0
v -16 -160 0
v -32 -176 0
v -48 -176 0
v -48 -160 0
v -32 -160 0
v -48 -176 0
v -64 -176 0
v -64 -160 0
v -48 -160 0
v -64 -176 0
v -80 -176 0
v -80 -160 0
v -64 -160 0
v -208 -176 0
v -224 -176 0
v -224 -160 0
v -208 -160 0
v -224 -176 0
v -240 -176 0
v -240 -160 0
v -224 -160 0
v -272 -176 0
v -288 -176 0
v -288 -160 0
v -272 -160 0
v -288 -176 0
v -304 -176 0
v -304 -160 0
v -288 -160 0
v -304 -176 0
v -320 -176 0
v -320 -160 0
v -304 -160 0
v -48 -192 0
v -64 -192 0
v -64 -176 0
v -48 -176 0
v -64 -192 0
v -80 -192 0
v -80 -176 0
v -64 -176 0
v -272 -192 0
v -288 -192 0
v -288 -176 0
v -272 -176 0
v -288 -192 0
v -304 -192 0
v -304 -176 0
v -288 -176 0
v -304 -192 0
v -320 -192 0
v -320 -176 0
v -304 -176 0
v -192 -208 0
v -208 -208 0
v -208 -192 0
v -192 -192 0
v -208 -208 0
v -224 -208 0
v -224 -192 0
v -208 -192 0
v -224 -208 0
v -240 -208 0
v -240 -192 0
v -224 -192 0
v -240 -208 0
v -256 -208 0
v -256 -192 0
v -240 -192 0
v -256 -208 0
v -272 -208 0
v -272 -192 0
v -256 -192 0
v -272 -208 0
v -288 -208 0
v -288 -192 0
v -272 -192 0
v -288 -208 0
v -304 -208 0
v -304 -192 0
v -288 -192 0
v -304 -208 0
v -320 -208 0
v -320 -192 0
v -304 -192 0
v -192 -224 0
v -208 -224 0
v -208 -208 0
v -192 -208 0
v -224 -224 0
v -240 -224 0
v -240 -208 0
v -224 -208 0
v -240 -224 0
v -256 -224 0
v -256 -208 0
v -240 -208 0
v -256 -224 0
v -272 -224 0
v -272 -208 0
v -256 -208 0
v -272 -224 0
v -288 -224 0
v -288 -208 0
v -272 -208 0
v -288 -224 0
v -304 -224 0
v -304 -208 0
v -288 -208 0
v -192 -240 0
v -208 -240 0
v -208 -224 0
v -192 -224 0
v -224 -240 0
v -240 -240 0
v -240 -224 0
v -224 -224 0
v -240 -240 0
v -256 -240 0
v -256 -224 0
v -240 -224 0
v -256 -240 0
v -272 -240 0
v -272 -224 0
v -256 -224 0
v -272 -240 0
v -288 -240 0
v -288 -224 0
v -272 -224 0
v -288 -240 0
v -304 -240 0
v -304 -224 0
v -288 -224 0
v 0 -256 0
v -16 -256 0
v -16 -240 0
v 0 -240 0
v -16 -256 0
v -32 -256 0
v -32 -240 0
v -16 -240 0
v -32 -256 0
v -48 -256 0
v -48 -240 0
v -32 -240 0
v -48 -256 0
v -64 -256 0
v -64 -240 0
v -48 -240 0
v -64 -256 0
v -80 -256 0
v -80 -240 0
v -64 -240 0
v -192 -256 0
v -208 -256 0
v -208 -240 0
v -192 -240 0
v -224 -256 0
v -240 -256 0
v -240 -240 0
v -224 -240 0
v -240 -256 0
v -256 -256 0
v -256 -240 0
v -240 -240 0
v -256 -256 0
v -272 -256 0
v -272 -240 0
v -256 -240 0
v -272 -256 0
v -288 -256 0
v -288 -240 0
v -272 -240 0
v -288 -256 0
v -304 -256 0
v -304 -240 0
v -288 -240 0
v 0 -272 0
v -16 -272 0
v -16 -256 0
v 0 -256 0
v -16 -272 0
v -32 -272 0
v -32 -256 0
v -16 -256 0
v -32 -272 0
v -48 -272 0
v -48 -256 0
v -32 -256 0
v -48 -272 0
v -64 -272 0
v -64 -256 0
v -48 -256 0
v -64 -272 0
v -80 -272 0
v -80 -256 0
v -64 -256 0
v -160 -272 0
v -176 -272 0
v -176 -256 0
v -160 -256 0
v -176 -272 0
v -192 -272 0
v -192 -256 0
v -176 -256 0
v -192 -272 0
v -208 -272 0
v -208 -256 0
v -192 -256 0
v -208 -272 0
v -224 -272 0
v -224 -256 0
v -208 -256 0
v -224 -272 0
v -240 -272 0
v -240 -256 0
v -224 -256 0
v -240 -272 0
v -256 -272 0
v -256 -256 0
v -240 -256 0
v -256 -272 0
v -272 -272 0
v -272 -256 0
v -256 -256 0
v -272 -272 0
v -288 -272 0
v -288 -256 0
v -272 -256 0
v -288 -272 0
v -304 -272 0
v -304 -256 0
v -288 -256 0
v -304 -272 0
v -320 -272 0
v -320 -256 0
v -304 -256 0
v 0 -288 0
v -16 -288 0
v -16 -272 0
v 0 -272 0
v -16 -288 0
v -32 -288 0
v -32 -272 0
v -16 -272 0
v -32 -288 0
v -48 -288 0
v -48 -272 0
v -32 -272 0
v -48 -288 0
v -64 -288 0
v -64 -272 0
v -48 -272 0
v -64 -288 0
v -80 -288 0
v -80 -272 0
v -64 -272 0
v -80 -288 0
v -96 -288 0
v -96 -272 0
v -80 -272 0
v -96 -288 0
v -112 -288 0
v -112 -272 0
v -96 -272 0
v -224 -288 0
v -240 -288 0
v -240 -272 0
v -224 -272 0
v -240 -288 0
v -256 -288 0
v -256 -272 0
v -240 -272 0
v -256 -288 0
v -272 -288 0
v -272 -272 0
v -256 -272 0
v -272 -288 0
v -288 -288 0
v -288 -272 0
v -272 -272 0
v -288 -288 0
v -304 -288 0
v -304 -272 0
v -288 -272 0
v -304 -288 0
v -320 -288 0
v -320 -272 0
v -304 -272 0
v 0 -304 0
v -16 -304 0
v -16 -288 0
v 0 -288 0
v -16 -304 0
v -32 -304 0
v -32 -288 0
v -16 -288 0
v -32 -304 0
v -48 -304 0
v -48 -288 0
v -32 -288 0
v -48 -304 0
v -64 -304 0
v -64 -288 0
v -48 -288 0
v -64 -304 0
v -80 -304 0
v -80 -288 0
v -64 -288 0
v -80 -304 0
v -96 -304 0
v -96 -288 0
v -80 -288 0
v -96 -304 0
v -112 -304 0
v -112 -288 0
v -96 -288 0
v 0 -320 0
v -16 -320 0
v -16 -304 0
v 0 -304 0
v -16 -320 0
v -32 -320 0
v -32 -304 0
v -16 -304 0
v -32 -320 0
v -48 -320 0
v -48 -304 0
v -32 -304 0
v -48 -320 0
v -64 -320 0
v -64 -304 0
v -48 -304 0
v -64 -320 0
v -80 -320 0
v -80 -304 0
v -64 -304 0
v -80 -320 0
v -96 -320 0
v -96 -304 0
v -80 -304 0
v -96 -320 0
v -112 -320 0
v -112 -304 0
v -96 -304 0
v -160 -320 0
v -176 -320 0
v -176 -304 0
v -160 -304 0
v -176 -320 0
v -192 -320 0
v -192 -304 0
v -176 -304 0
v -192 -320 0
v -208 -320 0
v -208 -304 0
v -192 -304 0
v -208 -320 0
v -224 -320 0
v -224 -304 0
v -208 -304 0
v -224 -320 0
v -240 -320 0
v -240 -304 0
v -224 -304 0
v -240 -320 0
v -256 -320 0
v -256 -304 0
v -240 -304 0
v -256 -320 0
v -272 -320 0
v -272 -304 0
v -256 -304 0
v -272 -320 0
v -288 -320 0
v -288 -304 0
v -272 -304 0
v -288 -320 0
v -304 -320 0
v -304 -304 0
v -288 -304 0
v -304 -320 0
v -320 -320 0
v -320 -304 0
v -304 -304 0

# Texture cooridinates (Count = 196)
vt 0.1 0.7222222
vt 0.125 0.7222222
vt 0.125 0.75
vt 0.1 0.75
vt 0 0.9722222
vt 0.025 0.9722222
vt 0.025 1
vt 0 1
vt 0.15 0.7222222
vt 0.175 0.7222222
vt 0.175 0.75
vt 0.15 0.75
vt 0.125 0.7777778
vt 0.15 0.7777778
vt 0.15 0.8055556
vt 0.125 0.8055556
vt 0.175 0.7777778
vt 0.2 0.7777778
vt 0.2 0.8055556
vt 0.175 0.8055556
vt 0.325 0.1944444
vt 0.325 0.2222222
vt 0.3 0.2222222
vt 0.3 0.1944444
vt 0.125 0.5
vt 0.15 0.5
vt 0.15 0.5277778
vt 0.125 0.5277778
vt 0.125 0.4444444
vt 0.15 0.4444444
vt 0.15 0.4722222
vt 0.125 0.4722222
vt 0.175 0.5
vt 0.175 0.5277778
vt 0.1 0.6944444
vt 0.125 0.6944444
vt 0.15 0.6944444
vt 0.175 0.6944444
vt 0.325 0.75
vt 0.35 0.75
vt 0.35 0.7777778
vt 0.325 0.7777778
vt 0.375 0.75
vt 0.375 0.7777778
vt 0.075 0.6388889
vt 0.1 0.6388889
vt 0.1 0.6666666
vt 0.075 0.6666666
vt 0 0.75
vt 0.025 0.75
vt 0.025 0.7777778
vt 0 0.7777778
vt 0.775 0.8888889
vt 0.8 0.8888889
vt 0.8 0.9166667
vt 0.775 0.9166667
vt 0.825 0.8888889
vt 0.825 0.9166667
vt 0.325 0.7222222
vt 0.35 0.7222222
vt 0.375 0.7222222
vt 0.125 0.9722222
vt 0.15 0.9722222
vt 0.15 1
vt 0.125 1
vt 0.775 0.8611111
vt 0.8 0.8611111
vt 0.825 0.8611111
vt 0.175 0.8333333
vt 0.2 0.8333333
vt 0.2 0.8611111
vt 0.175 0.8611111
vt 0.125 0.6666666
vt 0.15 0.6666666
vt 0.175 0.6666666
vt 0.125 0.6388889
vt 0.15 0.6388889
vt 0.125 0.6111111
vt 0.15 0.6111111
vt 0.2 0.75
vt 0.1 0.6111111
vt 0.2 0.6666666
vt 0.2 0.6944444
vt 0.1 0.9722222
vt 0.1 1
vt 0.075 0.6944444
vt 0.225 0.8333333
vt 0.225 0.8611111
vt 0.175 0.6388889
vt 0.2 0.6388889
vt 0.05 0.9722222
vt 0.05 1
vt 0.05 0.75
vt 0.05 0.7777778
vt 0.275 0.2777778
vt 0.3 0.2777778
vt 0.3 0.3055556
vt 0.275 0.3055556
vt 0.325 0.2777778
vt 0.325 0.3055556
vt 0.35 0.2777778
vt 0.35 0.3055556
vt 0.15 0.8333333
vt 0.125 0.8333333
vt 0.05 0.6388889
vt 0.05 0.6666666
vt 0.275 0.25
vt 0.3 0.25
vt 0.325 0.25
vt 0.35 0.25
vt 0.075 0.9722222
vt 0.075 1
vt 0.225 0.6666666
vt 0.25 0.6666666
vt 0.25 0.6944444
vt 0.225 0.6944444
vt 0.275 0.6666666
vt 0.275 0.6944444
vt 0.275 0.2222222
vt 0.35 0.2222222
vt 0.225 0.6388889
vt 0.25 0.6388889
vt 0.275 0.6388889
vt 0.1 0.9444444
vt 0.125 0.9444444
vt 0.15 0.9444444
vt 0.1 0.9166667
vt 0.125 0.9166667
vt 0.15 0.9166667
vt 0.05 0.5
vt 0.075 0.5
vt 0.075 0.5277778
vt 0.05 0.5277778
vt 0.1 0.5
vt 0.1 0.5277778
vt 0.1 0.4722222
vt 0.175 0.9722222
vt 0.175 1
vt 0.2 0.9722222
vt 0.2 1
vt 0.225 0.9722222
vt 0.225 1
vt 0.25 0.9722222
vt 0.25 1
vt 0.275 0.9722222
vt 0.275 1
vt 0.175 0.9444444
vt 0.2 0.9444444
vt 0.225 0.9444444
vt 0.25 0.9444444
vt 0.275 0.9444444
vt 0.15 0.5555556
vt 0.125 0.5555556
vt 0.175 0.5555556
vt 0.175 0.9166667
vt 0.2 0.9166667
vt 0.225 0.9166667
vt 0.25 0.9166667
vt 0.275 0.9166667
vt 0.175 0.4722222
vt 0.075 0.5555556
vt 0.05 0.5555556
vt 0.2 0.4722222
vt 0.2 0.5
vt 0 0.4444444
vt 0.025 0.4444444
vt 0.025 0.4722222
vt 0 0.4722222
vt 0.075 0.4722222
vt 0.85 0.9166667
vt 0.875 0.9166667
vt 0.875 0.9444444
vt 0.85 0.9444444
vt 0.15 0.8888889
vt 0.175 0.8888889
vt 0.2 0.8888889
vt 0.4 0.8611111
vt 0.425 0.8611111
vt 0.425 0.8888889
vt 0.4 0.8888889
vt 0.225 0.8888889
vt 0.25 0.8888889
vt 0.275 0.8888889
vt 0.825 0.9722222
vt 0.85 0.9722222
vt 0.85 1
vt 0.825 1
vt 0.1 0.5555556
vt 0.15 0.8611111
vt 0.4 0.8333333
vt 0.425 0.8333333
vt 0.25 0.8611111
vt 0.275 0.8611111
vt 0.825 0.9444444
vt 0.05 0.4444444
vt 0.05 0.4722222

# Normal
vn 0 0 -1

# Mesh description
g Floresta_mesh_0012

# Faces
f 1/1/1 2/2/1 3/3/1 4/4/1
f 5/5/1 6/6/1 7/7/1 8/8/1
f 9/9/1 10/10/1 11/11/1 12/12/1
f 13/13/1 14/14/1 15/15/1 16/16/1
f 17/17/1 18/18/1 19/19/1 20/20/1
f 21/21/1 22/22/1 23/23/1 24/24/1
f 25/25/1 26/26/1 27/27/1 28/28/1
f 29/29/1 30/30/1 31/31/1 32/32/1
f 33/29/1 34/30/1 35/31/1 36/32/1
f 37/29/1 38/30/1 39/31/1 40/32/1
f 41/29/1 42/30/1 43/31/1 44/32/1
f 45/26/1 46/33/1 47/34/1 48/27/1
f 49/35/1 50/36/1 51/2/1 52/1/1
f 53/36/1 54/37/1 55/9/1 56/2/1
f 57/37/1 58/38/1 59/10/1 60/9/1
f 61/39/1 62/40/1 63/41/1 64/42/1
f 65/40/1 66/43/1 67/44/1 68/41/1
f 69/13/1 70/14/1 71/15/1 72/16/1
f 73/17/1 74/18/1 75/19/1 76/20/1
f 77/45/1 78/46/1 79/47/1 80/48/1
f 81/49/1 82/50/1 83/51/1 84/52/1
f 85/53/1 86/54/1 87/55/1 88/56/1
f 89/54/1 90/57/1 91/58/1 92/55/1
f 93/49/1 94/50/1 95/51/1 96/52/1
f 97/35/1 98/36/1 99/2/1 100/1/1
f 101/36/1 102/37/1 103/9/1 104/2/1
f 105/37/1 106/38/1 107/10/1 108/9/1
f 109/59/1 110/60/1 111/40/1 112/39/1
f 113/60/1 114/61/1 115/43/1 116/40/1
f 117/13/1 118/14/1 119/15/1 120/16/1
f 121/17/1 122/18/1 123/19/1 124/20/1
f 125/62/1 126/63/1 127/64/1 128/65/1
f 129/66/1 130/67/1 131/54/1 132/53/1
f 133/67/1 134/68/1 135/57/1 136/54/1
f 137/69/1 138/70/1 139/71/1 140/72/1
f 141/47/1 142/73/1 143/36/1 144/35/1
f 145/73/1 146/74/1 147/37/1 148/36/1
f 149/74/1 150/75/1 151/38/1 152/37/1
f 153/13/1 154/14/1 155/15/1 156/16/1
f 157/17/1 158/18/1 159/19/1 160/20/1
f 161/46/1 162/76/1 163/73/1 164/47/1
f 165/76/1 166/77/1 167/74/1 168/73/1
f 169/78/1 170/79/1 171/77/1 172/76/1
f 173/3/1 174/12/1 175/14/1 176/13/1
f 177/12/1 178/11/1 179/17/1 180/14/1
f 181/12/1 182/11/1 183/17/1 184/14/1
f 185/11/1 186/80/1 187/18/1 188/17/1
f 189/81/1 190/78/1 191/76/1 192/46/1
f 193/75/1 194/82/1 195/83/1 196/38/1
f 197/81/1 198/78/1 199/76/1 200/46/1
f 201/84/1 202/62/1 203/65/1 204/85/1
f 205/48/1 206/47/1 207/35/1 208/86/1
f 209/70/1 210/87/1 211/88/1 212/71/1
f 213/77/1 214/89/1 215/75/1 216/74/1
f 217/89/1 218/90/1 219/82/1 220/75/1
f 221/75/1 222/74/1 223/77/1 224/89/1
f 225/6/1 226/91/1 227/92/1 228/7/1
f 229/50/1 230/93/1 231/94/1 232/51/1
f 233/95/1 234/96/1 235/97/1 236/98/1
f 237/96/1 238/99/1 239/100/1 240/97/1
f 241/99/1 242/101/1 243/102/1 244/100/1
f 245/16/1 246/15/1 247/103/1 248/104/1
f 249/15/1 250/20/1 251/69/1 252/103/1
f 253/20/1 254/19/1 255/70/1 256/69/1
f 257/105/1 258/45/1 259/48/1 260/106/1
f 261/107/1 262/108/1 263/96/1 264/95/1
f 265/108/1 266/109/1 267/99/1 268/96/1
f 269/109/1 270/110/1 271/101/1 272/99/1
f 273/13/1 274/14/1 275/15/1 276/16/1
f 277/14/1 278/17/1 279/20/1 280/15/1
f 281/17/1 282/18/1 283/19/1 284/20/1
f 285/91/1 286/111/1 287/112/1 288/92/1
f 289/48/1 290/47/1 291/35/1 292/86/1
f 293/113/1 294/114/1 295/115/1 296/116/1
f 297/114/1 298/117/1 299/118/1 300/115/1
f 301/49/1 302/50/1 303/51/1 304/52/1
f 305/84/1 306/62/1 307/65/1 308/85/1
f 309/119/1 310/23/1 311/108/1 312/107/1
f 313/23/1 314/22/1 315/109/1 316/108/1
f 317/22/1 318/120/1 319/110/1 320/109/1
f 321/13/1 322/14/1 323/15/1 324/16/1
f 325/14/1 326/17/1 327/20/1 328/15/1
f 329/17/1 330/18/1 331/19/1 332/20/1
f 333/105/1 334/45/1 335/48/1 336/106/1
f 337/121/1 338/122/1 339/114/1 340/113/1
f 341/122/1 342/123/1 343/117/1 344/114/1
f 345/50/1 346/93/1 347/94/1 348/51/1
f 349/16/1 350/15/1 351/103/1 352/104/1
f 353/15/1 354/20/1 355/69/1 356/103/1
f 357/20/1 358/19/1 359/70/1 360/69/1
f 361/3/1 362/12/1 363/14/1 364/13/1
f 365/12/1 366/11/1 367/17/1 368/14/1
f 369/11/1 370/80/1 371/18/1 372/17/1
f 373/124/1 374/125/1 375/62/1 376/84/1
f 377/125/1 378/126/1 379/63/1 380/62/1
f 381/105/1 382/45/1 383/48/1 384/106/1
f 385/48/1 386/47/1 387/35/1 388/86/1
f 389/13/1 390/14/1 391/15/1 392/16/1
f 393/14/1 394/17/1 395/20/1 396/15/1
f 397/17/1 398/18/1 399/19/1 400/20/1
f 401/127/1 402/128/1 403/125/1 404/124/1
f 405/128/1 406/129/1 407/126/1 408/125/1
f 409/3/1 410/12/1 411/14/1 412/13/1
f 413/12/1 414/11/1 415/17/1 416/14/1
f 417/11/1 418/80/1 419/18/1 420/17/1
f 421/130/1 422/131/1 423/132/1 424/133/1
f 425/134/1 426/25/1 427/28/1 428/135/1
f 429/134/1 430/25/1 431/28/1 432/135/1
f 433/134/1 434/25/1 435/28/1 436/135/1
f 437/134/1 438/25/1 439/28/1 440/135/1
f 441/134/1 442/25/1 443/28/1 444/135/1
f 445/134/1 446/25/1 447/28/1 448/135/1
f 449/131/1 450/134/1 451/135/1 452/132/1
f 453/136/1 454/32/1 455/25/1 456/134/1
f 457/63/1 458/137/1 459/138/1 460/64/1
f 461/137/1 462/139/1 463/140/1 464/138/1
f 465/139/1 466/141/1 467/142/1 468/140/1
f 469/141/1 470/143/1 471/144/1 472/142/1
f 473/143/1 474/145/1 475/146/1 476/144/1
f 477/136/1 478/32/1 479/25/1 480/134/1
f 481/126/1 482/147/1 483/137/1 484/63/1
f 485/147/1 486/148/1 487/139/1 488/137/1
f 489/148/1 490/149/1 491/141/1 492/139/1
f 493/149/1 494/150/1 495/143/1 496/141/1
f 497/150/1 498/151/1 499/145/1 500/143/1
f 501/28/1 502/27/1 503/152/1 504/153/1
f 505/32/1 506/31/1 507/26/1 508/25/1
f 509/32/1 510/31/1 511/26/1 512/25/1
f 513/32/1 514/31/1 515/26/1 516/25/1
f 517/27/1 518/34/1 519/154/1 520/152/1
f 521/136/1 522/32/1 523/25/1 524/134/1
f 525/129/1 526/155/1 527/147/1 528/126/1
f 529/155/1 530/156/1 531/148/1 532/147/1
f 533/156/1 534/157/1 535/149/1 536/148/1
f 537/157/1 538/158/1 539/150/1 540/149/1
f 541/158/1 542/159/1 543/151/1 544/150/1
f 545/31/1 546/160/1 547/33/1 548/26/1
f 549/133/1 550/132/1 551/161/1 552/162/1
f 553/133/1 554/132/1 555/161/1 556/162/1
f 557/133/1 558/132/1 559/161/1 560/162/1
f 561/160/1 562/163/1 563/164/1 564/33/1
f 565/165/1 566/166/1 567/167/1 568/168/1
f 569/134/1 570/25/1 571/28/1 572/135/1
f 573/169/1 574/136/1 575/134/1 576/131/1
f 577/170/1 578/171/1 579/172/1 580/173/1
f 581/174/1 582/175/1 583/155/1 584/129/1
f 585/175/1 586/176/1 587/156/1 588/155/1
f 589/177/1 590/178/1 591/179/1 592/180/1
f 593/181/1 594/182/1 595/158/1 596/157/1
f 597/182/1 598/183/1 599/159/1 600/158/1
f 601/184/1 602/185/1 603/186/1 604/187/1
f 605/31/1 606/160/1 607/33/1 608/26/1
f 609/133/1 610/132/1 611/161/1 612/162/1
f 613/133/1 614/132/1 615/161/1 616/162/1
f 617/133/1 618/132/1 619/161/1 620/162/1
f 621/135/1 622/28/1 623/153/1 624/188/1
f 625/32/1 626/31/1 627/26/1 628/25/1
f 629/27/1 630/34/1 631/154/1 632/152/1
f 633/189/1 634/72/1 635/175/1 636/174/1
f 637/72/1 638/71/1 639/176/1 640/175/1
f 641/190/1 642/191/1 643/178/1 644/177/1
f 645/88/1 646/192/1 647/182/1 648/181/1
f 649/192/1 650/193/1 651/183/1 652/182/1
f 653/194/1 654/173/1 655/185/1 656/184/1
f 657/31/1 658/160/1 659/33/1 660/26/1
f 661/133/1 662/132/1 663/161/1 664/162/1
f 665/133/1 666/132/1 667/161/1 668/162/1
f 669/133/1 670/132/1 671/161/1 672/162/1
f 673/133/1 674/132/1 675/161/1 676/162/1
f 677/133/1 678/132/1 679/161/1 680/162/1
f 681/160/1 682/163/1 683/164/1 684/33/1
f 685/25/1 686/26/1 687/27/1 688/28/1
f 689/29/1 690/30/1 691/31/1 692/32/1
f 693/29/1 694/30/1 695/31/1 696/32/1
f 697/29/1 698/30/1 699/31/1 700/32/1
f 701/29/1 702/30/1 703/31/1 704/32/1
f 705/29/1 706/30/1 707/31/1 708/32/1
f 709/26/1 710/33/1 711/34/1 712/27/1
f 713/165/1 714/166/1 715/167/1 716/168/1
f 717/134/1 718/25/1 719/28/1 720/135/1
f 721/134/1 722/25/1 723/28/1 724/135/1
f 725/134/1 726/25/1 727/28/1 728/135/1
f 729/134/1 730/25/1 731/28/1 732/135/1
f 733/134/1 734/25/1 735/28/1 736/135/1
f 737/134/1 738/25/1 739/28/1 740/135/1
f 741/134/1 742/25/1 743/28/1 744/135/1
f 745/134/1 746/25/1 747/28/1 748/135/1
f 749/166/1 750/195/1 751/196/1 752/167/1

