# Tiled2Unity generated file. Do not modify by hand.
# Wavefront file for 'Dungeon_mesh_0002.obj'

# Vertices (Count = 660)
v -16 -16 0
v -32 -16 0
v -32 0 0
v -16 0 0
v -32 -16 0
v -48 -16 0
v -48 0 0
v -32 0 0
v -48 -16 0
v -64 -16 0
v -64 0 0
v -48 0 0
v -64 -16 0
v -80 -16 0
v -80 0 0
v -64 0 0
v -80 -16 0
v -96 -16 0
v -96 0 0
v -80 0 0
v -96 -16 0
v -112 -16 0
v -112 0 0
v -96 0 0
v -112 -16 0
v -128 -16 0
v -128 0 0
v -112 0 0
v -128 -16 0
v -144 -16 0
v -144 0 0
v -128 0 0
v -144 -16 0
v -160 -16 0
v -160 0 0
v -144 0 0
v -160 -16 0
v -176 -16 0
v -176 0 0
v -160 0 0
v -176 -16 0
v -192 -16 0
v -192 0 0
v -176 0 0
v -192 -16 0
v -208 -16 0
v -208 0 0
v -192 0 0
v -208 -16 0
v -224 -16 0
v -224 0 0
v -208 0 0
v -16 -32 0
v -32 -32 0
v -32 -16 0
v -16 -16 0
v -32 -32 0
v -48 -32 0
v -48 -16 0
v -32 -16 0
v -48 -32 0
v -64 -32 0
v -64 -16 0
v -48 -16 0
v -64 -32 0
v -80 -32 0
v -80 -16 0
v -64 -16 0
v -80 -32 0
v -96 -32 0
v -96 -16 0
v -80 -16 0
v -96 -32 0
v -112 -32 0
v -112 -16 0
v -96 -16 0
v -112 -32 0
v -128 -32 0
v -128 -16 0
v -112 -16 0
v -128 -32 0
v -144 -32 0
v -144 -16 0
v -128 -16 0
v -144 -32 0
v -160 -32 0
v -160 -16 0
v -144 -16 0
v -160 -32 0
v -176 -32 0
v -176 -16 0
v -160 -16 0
v -176 -32 0
v -192 -32 0
v -192 -16 0
v -176 -16 0
v -192 -32 0
v -208 -32 0
v -208 -16 0
v -192 -16 0
v -208 -32 0
v -224 -32 0
v -224 -16 0
v -208 -16 0
v -16 -48 0
v -32 -48 0
v -32 -32 0
v -16 -32 0
v -32 -48 0
v -48 -48 0
v -48 -32 0
v -32 -32 0
v -48 -48 0
v -64 -48 0
v -64 -32 0
v -48 -32 0
v -64 -48 0
v -80 -48 0
v -80 -32 0
v -64 -32 0
v -80 -48 0
v -96 -48 0
v -96 -32 0
v -80 -32 0
v -96 -48 0
v -112 -48 0
v -112 -32 0
v -96 -32 0
v -112 -48 0
v -128 -48 0
v -128 -32 0
v -112 -32 0
v -128 -48 0
v -144 -48 0
v -144 -32 0
v -128 -32 0
v -144 -48 0
v -160 -48 0
v -160 -32 0
v -144 -32 0
v -160 -48 0
v -176 -48 0
v -176 -32 0
v -160 -32 0
v -176 -48 0
v -192 -48 0
v -192 -32 0
v -176 -32 0
v -192 -48 0
v -208 -48 0
v -208 -32 0
v -192 -32 0
v -208 -48 0
v -224 -48 0
v -224 -32 0
v -208 -32 0
v -16 -64 0
v -32 -64 0
v -32 -48 0
v -16 -48 0
v -32 -64 0
v -48 -64 0
v -48 -48 0
v -32 -48 0
v -48 -64 0
v -64 -64 0
v -64 -48 0
v -48 -48 0
v -64 -64 0
v -80 -64 0
v -80 -48 0
v -64 -48 0
v -160 -64 0
v -176 -64 0
v -176 -48 0
v -160 -48 0
v -176 -64 0
v -192 -64 0
v -192 -48 0
v -176 -48 0
v -192 -64 0
v -208 -64 0
v -208 -48 0
v -192 -48 0
v -208 -64 0
v -224 -64 0
v -224 -48 0
v -208 -48 0
v -16 -80 0
v -32 -80 0
v -32 -64 0
v -16 -64 0
v -32 -80 0
v -48 -80 0
v -48 -64 0
v -32 -64 0
v -48 -80 0
v -64 -80 0
v -64 -64 0
v -48 -64 0
v -64 -80 0
v -80 -80 0
v -80 -64 0
v -64 -64 0
v -160 -80 0
v -176 -80 0
v -176 -64 0
v -160 -64 0
v -176 -80 0
v -192 -80 0
v -192 -64 0
v -176 -64 0
v -192 -80 0
v -208 -80 0
v -208 -64 0
v -192 -64 0
v -208 -80 0
v -224 -80 0
v -224 -64 0
v -208 -64 0
v -32 -128 0
v -48 -128 0
v -48 -112 0
v -32 -112 0
v -48 -128 0
v -64 -128 0
v -64 -112 0
v -48 -112 0
v -80 -128 0
v -96 -128 0
v -96 -112 0
v -80 -112 0
v -96 -128 0
v -112 -128 0
v -112 -112 0
v -96 -112 0
v -128 -128 0
v -144 -128 0
v -144 -112 0
v -128 -112 0
v -144 -128 0
v -160 -128 0
v -160 -112 0
v -144 -112 0
v -176 -128 0
v -192 -128 0
v -192 -112 0
v -176 -112 0
v -192 -128 0
v -208 -128 0
v -208 -112 0
v -192 -112 0
v -32 -144 0
v -48 -144 0
v -48 -128 0
v -32 -128 0
v -48 -144 0
v -64 -144 0
v -64 -128 0
v -48 -128 0
v -80 -144 0
v -96 -144 0
v -96 -128 0
v -80 -128 0
v -96 -144 0
v -112 -144 0
v -112 -128 0
v -96 -128 0
v -128 -144 0
v -144 -144 0
v -144 -128 0
v -128 -128 0
v -144 -144 0
v -160 -144 0
v -160 -128 0
v -144 -128 0
v -176 -144 0
v -192 -144 0
v -192 -128 0
v -176 -128 0
v -192 -144 0
v -208 -144 0
v -208 -128 0
v -192 -128 0
v -32 -160 0
v -48 -160 0
v -48 -144 0
v -32 -144 0
v -48 -160 0
v -64 -160 0
v -64 -144 0
v -48 -144 0
v -80 -160 0
v -96 -160 0
v -96 -144 0
v -80 -144 0
v -96 -160 0
v -112 -160 0
v -112 -144 0
v -96 -144 0
v -128 -160 0
v -144 -160 0
v -144 -144 0
v -128 -144 0
v -144 -160 0
v -160 -160 0
v -160 -144 0
v -144 -144 0
v -176 -160 0
v -192 -160 0
v -192 -144 0
v -176 -144 0
v -192 -160 0
v -208 -160 0
v -208 -144 0
v -192 -144 0
v -32 -176 0
v -48 -176 0
v -48 -160 0
v -32 -160 0
v -48 -176 0
v -64 -176 0
v -64 -160 0
v -48 -160 0
v -80 -176 0
v -96 -176 0
v -96 -160 0
v -80 -160 0
v -96 -176 0
v -112 -176 0
v -112 -160 0
v -96 -160 0
v -128 -176 0
v -144 -176 0
v -144 -160 0
v -128 -160 0
v -144 -176 0
v -160 -176 0
v -160 -160 0
v -144 -160 0
v -176 -176 0
v -192 -176 0
v -192 -160 0
v -176 -160 0
v -192 -176 0
v -208 -176 0
v -208 -160 0
v -192 -160 0
v -16 -208 0
v -32 -208 0
v -32 -192 0
v -16 -192 0
v -32 -208 0
v -48 -208 0
v -48 -192 0
v -32 -192 0
v -48 -208 0
v -64 -208 0
v -64 -192 0
v -48 -192 0
v -64 -208 0
v -80 -208 0
v -80 -192 0
v -64 -192 0
v -80 -208 0
v -96 -208 0
v -96 -192 0
v -80 -192 0
v -144 -208 0
v -160 -208 0
v -160 -192 0
v -144 -192 0
v -160 -208 0
v -176 -208 0
v -176 -192 0
v -160 -192 0
v -176 -208 0
v -192 -208 0
v -192 -192 0
v -176 -192 0
v -192 -208 0
v -208 -208 0
v -208 -192 0
v -192 -192 0
v -208 -208 0
v -224 -208 0
v -224 -192 0
v -208 -192 0
v -16 -224 0
v -32 -224 0
v -32 -208 0
v -16 -208 0
v -32 -224 0
v -48 -224 0
v -48 -208 0
v -32 -208 0
v -48 -224 0
v -64 -224 0
v -64 -208 0
v -48 -208 0
v -64 -224 0
v -80 -224 0
v -80 -208 0
v -64 -208 0
v -80 -224 0
v -96 -224 0
v -96 -208 0
v -80 -208 0
v -144 -224 0
v -160 -224 0
v -160 -208 0
v -144 -208 0
v -160 -224 0
v -176 -224 0
v -176 -208 0
v -160 -208 0
v -176 -224 0
v -192 -224 0
v -192 -208 0
v -176 -208 0
v -192 -224 0
v -208 -224 0
v -208 -208 0
v -192 -208 0
v -208 -224 0
v -224 -224 0
v -224 -208 0
v -208 -208 0
v -16 -240 0
v -32 -240 0
v -32 -224 0
v -16 -224 0
v -32 -240 0
v -48 -240 0
v -48 -224 0
v -32 -224 0
v -48 -240 0
v -64 -240 0
v -64 -224 0
v -48 -224 0
v -64 -240 0
v -80 -240 0
v -80 -224 0
v -64 -224 0
v -80 -240 0
v -96 -240 0
v -96 -224 0
v -80 -224 0
v -144 -240 0
v -160 -240 0
v -160 -224 0
v -144 -224 0
v -160 -240 0
v -176 -240 0
v -176 -224 0
v -160 -224 0
v -176 -240 0
v -192 -240 0
v -192 -224 0
v -176 -224 0
v -192 -240 0
v -208 -240 0
v -208 -224 0
v -192 -224 0
v -208 -240 0
v -224 -240 0
v -224 -224 0
v -208 -224 0
v -32 -288 0
v -48 -288 0
v -48 -272 0
v -32 -272 0
v -48 -288 0
v -64 -288 0
v -64 -272 0
v -48 -272 0
v -80 -288 0
v -96 -288 0
v -96 -272 0
v -80 -272 0
v -96 -288 0
v -112 -288 0
v -112 -272 0
v -96 -272 0
v -128 -288 0
v -144 -288 0
v -144 -272 0
v -128 -272 0
v -144 -288 0
v -160 -288 0
v -160 -272 0
v -144 -272 0
v -176 -288 0
v -192 -288 0
v -192 -272 0
v -176 -272 0
v -192 -288 0
v -208 -288 0
v -208 -272 0
v -192 -272 0
v -32 -304 0
v -48 -304 0
v -48 -288 0
v -32 -288 0
v -48 -304 0
v -64 -304 0
v -64 -288 0
v -48 -288 0
v -80 -304 0
v -96 -304 0
v -96 -288 0
v -80 -288 0
v -96 -304 0
v -112 -304 0
v -112 -288 0
v -96 -288 0
v -128 -304 0
v -144 -304 0
v -144 -288 0
v -128 -288 0
v -144 -304 0
v -160 -304 0
v -160 -288 0
v -144 -288 0
v -176 -304 0
v -192 -304 0
v -192 -288 0
v -176 -288 0
v -192 -304 0
v -208 -304 0
v -208 -288 0
v -192 -288 0
v -32 -320 0
v -48 -320 0
v -48 -304 0
v -32 -304 0
v -48 -320 0
v -64 -320 0
v -64 -304 0
v -48 -304 0
v -80 -320 0
v -96 -320 0
v -96 -304 0
v -80 -304 0
v -96 -320 0
v -112 -320 0
v -112 -304 0
v -96 -304 0
v -128 -320 0
v -144 -320 0
v -144 -304 0
v -128 -304 0
v -144 -320 0
v -160 -320 0
v -160 -304 0
v -144 -304 0
v -176 -320 0
v -192 -320 0
v -192 -304 0
v -176 -304 0
v -192 -320 0
v -208 -320 0
v -208 -304 0
v -192 -304 0
v -32 -336 0
v -48 -336 0
v -48 -320 0
v -32 -320 0
v -48 -336 0
v -64 -336 0
v -64 -320 0
v -48 -320 0
v -80 -336 0
v -96 -336 0
v -96 -320 0
v -80 -320 0
v -96 -336 0
v -112 -336 0
v -112 -320 0
v -96 -320 0
v -128 -336 0
v -144 -336 0
v -144 -320 0
v -128 -320 0
v -144 -336 0
v -160 -336 0
v -160 -320 0
v -144 -320 0
v -176 -336 0
v -192 -336 0
v -192 -320 0
v -176 -320 0
v -192 -336 0
v -208 -336 0
v -208 -320 0
v -192 -320 0
v -16 -368 0
v -32 -368 0
v -32 -352 0
v -16 -352 0
v -32 -368 0
v -48 -368 0
v -48 -352 0
v -32 -352 0
v -48 -368 0
v -64 -368 0
v -64 -352 0
v -48 -352 0
v -64 -368 0
v -80 -368 0
v -80 -352 0
v -64 -352 0
v -160 -368 0
v -176 -368 0
v -176 -352 0
v -160 -352 0
v -176 -368 0
v -192 -368 0
v -192 -352 0
v -176 -352 0
v -192 -368 0
v -208 -368 0
v -208 -352 0
v -192 -352 0
v -208 -368 0
v -224 -368 0
v -224 -352 0
v -208 -352 0
v -16 -384 0
v -32 -384 0
v -32 -368 0
v -16 -368 0
v -32 -384 0
v -48 -384 0
v -48 -368 0
v -32 -368 0
v -48 -384 0
v -64 -384 0
v -64 -368 0
v -48 -368 0
v -64 -384 0
v -80 -384 0
v -80 -368 0
v -64 -368 0
v -160 -384 0
v -176 -384 0
v -176 -368 0
v -160 -368 0
v -176 -384 0
v -192 -384 0
v -192 -368 0
v -176 -368 0
v -192 -384 0
v -208 -384 0
v -208 -368 0
v -192 -368 0
v -208 -384 0
v -224 -384 0
v -224 -368 0
v -208 -368 0

# Texture cooridinates (Count = 37)
vt 0.025 0.84
vt 0.05 0.84
vt 0.05 0.88
vt 0.025 0.88
vt 0.075 0.84
vt 0.075 0.88
vt 0.1 0.84
vt 0.1 0.88
vt 0.025 0.8
vt 0.05 0.8
vt 0.075 0.8
vt 0.25 0.76
vt 0.275 0.76
vt 0.275 0.8
vt 0.25 0.8
vt 0.1 0.8
vt 0.025 0.76
vt 0.05 0.76
vt 0.075 0.76
vt 0.25 0.72
vt 0.275 0.72
vt 0.1 0.76
vt 0.175 0.76
vt 0.2 0.76
vt 0.2 0.8
vt 0.175 0.8
vt 0.15 0.76
vt 0.15 0.8
vt 0.225 0.76
vt 0.225 0.8
vt 0.175 0.72
vt 0.2 0.72
vt 0.15 0.72
vt 0.225 0.72
vt 0.2 0.84
vt 0.175 0.84
vt 0.225 0.84

# Normal
vn 0 0 -1

# Mesh description
g Dungeon_mesh_0002

# Faces
f 1/1/1 2/2/1 3/3/1 4/4/1
f 5/2/1 6/5/1 7/6/1 8/3/1
f 9/2/1 10/5/1 11/6/1 12/3/1
f 13/2/1 14/5/1 15/6/1 16/3/1
f 17/2/1 18/5/1 19/6/1 20/3/1
f 21/2/1 22/5/1 23/6/1 24/3/1
f 25/2/1 26/5/1 27/6/1 28/3/1
f 29/2/1 30/5/1 31/6/1 32/3/1
f 33/2/1 34/5/1 35/6/1 36/3/1
f 37/2/1 38/5/1 39/6/1 40/3/1
f 41/2/1 42/5/1 43/6/1 44/3/1
f 45/2/1 46/5/1 47/6/1 48/3/1
f 49/5/1 50/7/1 51/8/1 52/6/1
f 53/9/1 54/10/1 55/2/1 56/1/1
f 57/10/1 58/11/1 59/5/1 60/2/1
f 61/10/1 62/11/1 63/5/1 64/2/1
f 65/10/1 66/11/1 67/5/1 68/2/1
f 69/10/1 70/11/1 71/5/1 72/2/1
f 73/10/1 74/11/1 75/5/1 76/2/1
f 77/12/1 78/13/1 79/14/1 80/15/1
f 81/10/1 82/11/1 83/5/1 84/2/1
f 85/10/1 86/11/1 87/5/1 88/2/1
f 89/10/1 90/11/1 91/5/1 92/2/1
f 93/10/1 94/11/1 95/5/1 96/2/1
f 97/10/1 98/11/1 99/5/1 100/2/1
f 101/11/1 102/16/1 103/7/1 104/5/1
f 105/17/1 106/18/1 107/10/1 108/9/1
f 109/18/1 110/19/1 111/11/1 112/10/1
f 113/18/1 114/19/1 115/11/1 116/10/1
f 117/18/1 118/19/1 119/11/1 120/10/1
f 121/18/1 122/19/1 123/11/1 124/10/1
f 125/18/1 126/19/1 127/11/1 128/10/1
f 129/20/1 130/21/1 131/13/1 132/12/1
f 133/18/1 134/19/1 135/11/1 136/10/1
f 137/18/1 138/19/1 139/11/1 140/10/1
f 141/18/1 142/19/1 143/11/1 144/10/1
f 145/18/1 146/19/1 147/11/1 148/10/1
f 149/18/1 150/19/1 151/11/1 152/10/1
f 153/19/1 154/22/1 155/16/1 156/11/1
f 157/23/1 158/24/1 159/25/1 160/26/1
f 161/27/1 162/23/1 163/26/1 164/28/1
f 165/27/1 166/23/1 167/26/1 168/28/1
f 169/24/1 170/29/1 171/30/1 172/25/1
f 173/23/1 174/24/1 175/25/1 176/26/1
f 177/27/1 178/23/1 179/26/1 180/28/1
f 181/27/1 182/23/1 183/26/1 184/28/1
f 185/24/1 186/29/1 187/30/1 188/25/1
f 189/31/1 190/32/1 191/24/1 192/23/1
f 193/33/1 194/31/1 195/23/1 196/27/1
f 197/33/1 198/31/1 199/23/1 200/27/1
f 201/32/1 202/34/1 203/29/1 204/24/1
f 205/31/1 206/32/1 207/24/1 208/23/1
f 209/33/1 210/31/1 211/23/1 212/27/1
f 213/33/1 214/31/1 215/23/1 216/27/1
f 217/32/1 218/34/1 219/29/1 220/24/1
f 221/23/1 222/24/1 223/25/1 224/26/1
f 225/24/1 226/29/1 227/30/1 228/25/1
f 229/23/1 230/24/1 231/25/1 232/26/1
f 233/24/1 234/29/1 235/30/1 236/25/1
f 237/23/1 238/24/1 239/25/1 240/26/1
f 241/24/1 242/29/1 243/30/1 244/25/1
f 245/23/1 246/24/1 247/25/1 248/26/1
f 249/24/1 250/29/1 251/30/1 252/25/1
f 253/26/1 254/25/1 255/35/1 256/36/1
f 257/25/1 258/30/1 259/37/1 260/35/1
f 261/26/1 262/25/1 263/35/1 264/36/1
f 265/25/1 266/30/1 267/37/1 268/35/1
f 269/26/1 270/25/1 271/35/1 272/36/1
f 273/25/1 274/30/1 275/37/1 276/35/1
f 277/26/1 278/25/1 279/35/1 280/36/1
f 281/25/1 282/30/1 283/37/1 284/35/1
f 285/26/1 286/25/1 287/35/1 288/36/1
f 289/25/1 290/30/1 291/37/1 292/35/1
f 293/26/1 294/25/1 295/35/1 296/36/1
f 297/25/1 298/30/1 299/37/1 300/35/1
f 301/26/1 302/25/1 303/35/1 304/36/1
f 305/25/1 306/30/1 307/37/1 308/35/1
f 309/26/1 310/25/1 311/35/1 312/36/1
f 313/25/1 314/30/1 315/37/1 316/35/1
f 317/31/1 318/32/1 319/24/1 320/23/1
f 321/32/1 322/34/1 323/29/1 324/24/1
f 325/31/1 326/32/1 327/24/1 328/23/1
f 329/32/1 330/34/1 331/29/1 332/24/1
f 333/31/1 334/32/1 335/24/1 336/23/1
f 337/32/1 338/34/1 339/29/1 340/24/1
f 341/31/1 342/32/1 343/24/1 344/23/1
f 345/32/1 346/34/1 347/29/1 348/24/1
f 349/23/1 350/24/1 351/25/1 352/26/1
f 353/27/1 354/23/1 355/26/1 356/28/1
f 357/27/1 358/23/1 359/26/1 360/28/1
f 361/27/1 362/23/1 363/26/1 364/28/1
f 365/24/1 366/29/1 367/30/1 368/25/1
f 369/23/1 370/24/1 371/25/1 372/26/1
f 373/27/1 374/23/1 375/26/1 376/28/1
f 377/27/1 378/23/1 379/26/1 380/28/1
f 381/27/1 382/23/1 383/26/1 384/28/1
f 385/24/1 386/29/1 387/30/1 388/25/1
f 389/26/1 390/25/1 391/35/1 392/36/1
f 393/27/1 394/23/1 395/26/1 396/28/1
f 397/27/1 398/23/1 399/26/1 400/28/1
f 401/27/1 402/23/1 403/26/1 404/28/1
f 405/25/1 406/30/1 407/37/1 408/35/1
f 409/26/1 410/25/1 411/35/1 412/36/1
f 413/27/1 414/23/1 415/26/1 416/28/1
f 417/27/1 418/23/1 419/26/1 420/28/1
f 421/27/1 422/23/1 423/26/1 424/28/1
f 425/25/1 426/30/1 427/37/1 428/35/1
f 429/31/1 430/32/1 431/24/1 432/23/1
f 433/33/1 434/31/1 435/23/1 436/27/1
f 437/33/1 438/31/1 439/23/1 440/27/1
f 441/33/1 442/31/1 443/23/1 444/27/1
f 445/32/1 446/34/1 447/29/1 448/24/1
f 449/31/1 450/32/1 451/24/1 452/23/1
f 453/33/1 454/31/1 455/23/1 456/27/1
f 457/33/1 458/31/1 459/23/1 460/27/1
f 461/33/1 462/31/1 463/23/1 464/27/1
f 465/32/1 466/34/1 467/29/1 468/24/1
f 469/23/1 470/24/1 471/25/1 472/26/1
f 473/24/1 474/29/1 475/30/1 476/25/1
f 477/23/1 478/24/1 479/25/1 480/26/1
f 481/24/1 482/29/1 483/30/1 484/25/1
f 485/23/1 486/24/1 487/25/1 488/26/1
f 489/24/1 490/29/1 491/30/1 492/25/1
f 493/23/1 494/24/1 495/25/1 496/26/1
f 497/24/1 498/29/1 499/30/1 500/25/1
f 501/26/1 502/25/1 503/35/1 504/36/1
f 505/25/1 506/30/1 507/37/1 508/35/1
f 509/26/1 510/25/1 511/35/1 512/36/1
f 513/25/1 514/30/1 515/37/1 516/35/1
f 517/26/1 518/25/1 519/35/1 520/36/1
f 521/25/1 522/30/1 523/37/1 524/35/1
f 525/26/1 526/25/1 527/35/1 528/36/1
f 529/25/1 530/30/1 531/37/1 532/35/1
f 533/26/1 534/25/1 535/35/1 536/36/1
f 537/25/1 538/30/1 539/37/1 540/35/1
f 541/26/1 542/25/1 543/35/1 544/36/1
f 545/25/1 546/30/1 547/37/1 548/35/1
f 549/26/1 550/25/1 551/35/1 552/36/1
f 553/25/1 554/30/1 555/37/1 556/35/1
f 557/26/1 558/25/1 559/35/1 560/36/1
f 561/25/1 562/30/1 563/37/1 564/35/1
f 565/31/1 566/32/1 567/24/1 568/23/1
f 569/32/1 570/34/1 571/29/1 572/24/1
f 573/31/1 574/32/1 575/24/1 576/23/1
f 577/32/1 578/34/1 579/29/1 580/24/1
f 581/31/1 582/32/1 583/24/1 584/23/1
f 585/32/1 586/34/1 587/29/1 588/24/1
f 589/31/1 590/32/1 591/24/1 592/23/1
f 593/32/1 594/34/1 595/29/1 596/24/1
f 597/23/1 598/24/1 599/25/1 600/26/1
f 601/27/1 602/23/1 603/26/1 604/28/1
f 605/27/1 606/23/1 607/26/1 608/28/1
f 609/24/1 610/29/1 611/30/1 612/25/1
f 613/23/1 614/24/1 615/25/1 616/26/1
f 617/27/1 618/23/1 619/26/1 620/28/1
f 621/27/1 622/23/1 623/26/1 624/28/1
f 625/24/1 626/29/1 627/30/1 628/25/1
f 629/31/1 630/32/1 631/24/1 632/23/1
f 633/33/1 634/31/1 635/23/1 636/27/1
f 637/33/1 638/31/1 639/23/1 640/27/1
f 641/32/1 642/34/1 643/29/1 644/24/1
f 645/31/1 646/32/1 647/24/1 648/23/1
f 649/33/1 650/31/1 651/23/1 652/27/1
f 653/33/1 654/31/1 655/23/1 656/27/1
f 657/32/1 658/34/1 659/29/1 660/24/1

