# Tiled2Unity generated file. Do not modify by hand.
# Wavefront file for 'Mina_mesh_0015.obj'

# Vertices (Count = 160)
v -48 -64 0
v -64 -64 0
v -64 -48 0
v -48 -48 0
v -80 -64 0
v -96 -64 0
v -96 -48 0
v -80 -48 0
v -112 -64 0
v -128 -64 0
v -128 -48 0
v -112 -48 0
v -144 -64 0
v -160 -64 0
v -160 -48 0
v -144 -48 0
v -176 -64 0
v -192 -64 0
v -192 -48 0
v -176 -48 0
v -48 -80 0
v -64 -80 0
v -64 -64 0
v -48 -64 0
v -80 -80 0
v -96 -80 0
v -96 -64 0
v -80 -64 0
v -112 -80 0
v -128 -80 0
v -128 -64 0
v -112 -64 0
v -144 -80 0
v -160 -80 0
v -160 -64 0
v -144 -64 0
v -176 -80 0
v -192 -80 0
v -192 -64 0
v -176 -64 0
v -48 -96 0
v -64 -96 0
v -64 -80 0
v -48 -80 0
v -80 -96 0
v -96 -96 0
v -96 -80 0
v -80 -80 0
v -112 -96 0
v -128 -96 0
v -128 -80 0
v -112 -80 0
v -144 -96 0
v -160 -96 0
v -160 -80 0
v -144 -80 0
v -176 -96 0
v -192 -96 0
v -192 -80 0
v -176 -80 0
v -48 -112 0
v -64 -112 0
v -64 -96 0
v -48 -96 0
v -80 -112 0
v -96 -112 0
v -96 -96 0
v -80 -96 0
v -112 -112 0
v -128 -112 0
v -128 -96 0
v -112 -96 0
v -144 -112 0
v -160 -112 0
v -160 -96 0
v -144 -96 0
v -176 -112 0
v -192 -112 0
v -192 -96 0
v -176 -96 0
v -48 -160 0
v -64 -160 0
v -64 -144 0
v -48 -144 0
v -80 -160 0
v -96 -160 0
v -96 -144 0
v -80 -144 0
v -112 -160 0
v -128 -160 0
v -128 -144 0
v -112 -144 0
v -144 -160 0
v -160 -160 0
v -160 -144 0
v -144 -144 0
v -176 -160 0
v -192 -160 0
v -192 -144 0
v -176 -144 0
v -48 -176 0
v -64 -176 0
v -64 -160 0
v -48 -160 0
v -80 -176 0
v -96 -176 0
v -96 -160 0
v -80 -160 0
v -112 -176 0
v -128 -176 0
v -128 -160 0
v -112 -160 0
v -144 -176 0
v -160 -176 0
v -160 -160 0
v -144 -160 0
v -176 -176 0
v -192 -176 0
v -192 -160 0
v -176 -160 0
v -48 -192 0
v -64 -192 0
v -64 -176 0
v -48 -176 0
v -80 -192 0
v -96 -192 0
v -96 -176 0
v -80 -176 0
v -112 -192 0
v -128 -192 0
v -128 -176 0
v -112 -176 0
v -144 -192 0
v -160 -192 0
v -160 -176 0
v -144 -176 0
v -176 -192 0
v -192 -192 0
v -192 -176 0
v -176 -176 0
v -48 -208 0
v -64 -208 0
v -64 -192 0
v -48 -192 0
v -80 -208 0
v -96 -208 0
v -96 -192 0
v -80 -192 0
v -112 -208 0
v -128 -208 0
v -128 -192 0
v -112 -192 0
v -144 -208 0
v -160 -208 0
v -160 -192 0
v -144 -192 0
v -176 -208 0
v -192 -208 0
v -192 -192 0
v -176 -192 0

# Texture cooridinates (Count = 10)
vt 0.425 0.4166667
vt 0.45 0.4166667
vt 0.45 0.4444444
vt 0.425 0.4444444
vt 0.375 0.3888889
vt 0.4 0.3888889
vt 0.4 0.4166667
vt 0.375 0.4166667
vt 0.425 0.3888889
vt 0.45 0.3888889

# Normal
vn 0 0 -1

# Mesh description
g Mina_mesh_0015

# Faces
f 1/1/1 2/2/1 3/3/1 4/4/1
f 5/1/1 6/2/1 7/3/1 8/4/1
f 9/1/1 10/2/1 11/3/1 12/4/1
f 13/1/1 14/2/1 15/3/1 16/4/1
f 17/1/1 18/2/1 19/3/1 20/4/1
f 21/5/1 22/6/1 23/7/1 24/8/1
f 25/5/1 26/6/1 27/7/1 28/8/1
f 29/5/1 30/6/1 31/7/1 32/8/1
f 33/5/1 34/6/1 35/7/1 36/8/1
f 37/9/1 38/10/1 39/2/1 40/1/1
f 41/5/1 42/6/1 43/7/1 44/8/1
f 45/5/1 46/6/1 47/7/1 48/8/1
f 49/5/1 50/6/1 51/7/1 52/8/1
f 53/5/1 54/6/1 55/7/1 56/8/1
f 57/9/1 58/10/1 59/2/1 60/1/1
f 61/2/1 62/3/1 63/4/1 64/1/1
f 65/2/1 66/3/1 67/4/1 68/1/1
f 69/2/1 70/3/1 71/4/1 72/1/1
f 73/2/1 74/3/1 75/4/1 76/1/1
f 77/2/1 78/3/1 79/4/1 80/1/1
f 81/1/1 82/2/1 83/3/1 84/4/1
f 85/1/1 86/2/1 87/3/1 88/4/1
f 89/1/1 90/2/1 91/3/1 92/4/1
f 93/1/1 94/2/1 95/3/1 96/4/1
f 97/1/1 98/2/1 99/3/1 100/4/1
f 101/5/1 102/6/1 103/7/1 104/8/1
f 105/5/1 106/6/1 107/7/1 108/8/1
f 109/5/1 110/6/1 111/7/1 112/8/1
f 113/5/1 114/6/1 115/7/1 116/8/1
f 117/9/1 118/10/1 119/2/1 120/1/1
f 121/5/1 122/6/1 123/7/1 124/8/1
f 125/5/1 126/6/1 127/7/1 128/8/1
f 129/5/1 130/6/1 131/7/1 132/8/1
f 133/5/1 134/6/1 135/7/1 136/8/1
f 137/9/1 138/10/1 139/2/1 140/1/1
f 141/2/1 142/3/1 143/4/1 144/1/1
f 145/2/1 146/3/1 147/4/1 148/1/1
f 149/2/1 150/3/1 151/4/1 152/1/1
f 153/2/1 154/3/1 155/4/1 156/1/1
f 157/2/1 158/3/1 159/4/1 160/1/1

