# Tiled2Unity generated file. Do not modify by hand.
# Wavefront file for 'Mina_mesh_0019.obj'

# Vertices (Count = 8)
v -96 -96 0
v -104 -96 0
v -104 -88 0
v -96 -88 0
v -128 -96 0
v -136 -96 0
v -136 -88 0
v -128 -88 0

# Texture cooridinates (Count = 8)
vt 0.9333333 0.9444444
vt 0.9666666 0.9444444
vt 0.9666666 1
vt 0.9333333 1
vt 0.9 0.8333333
vt 0.9333333 0.8333333
vt 0.9333333 0.8888889
vt 0.9 0.8888889

# Normal
vn 0 0 -1

# Mesh description
g Mina_mesh_0019

# Faces
f 1/1/1 2/2/1 3/3/1 4/4/1
f 5/5/1 6/6/1 7/7/1 8/8/1

