# Tiled2Unity generated file. Do not modify by hand.
# Wavefront file for 'Mina_mesh_0005.obj'

# Vertices (Count = 320)
v -32 -64 0
v -48 -64 0
v -48 -48 0
v -32 -48 0
v -48 -64 0
v -64 -64 0
v -64 -48 0
v -48 -48 0
v -64 -64 0
v -80 -64 0
v -80 -48 0
v -64 -48 0
v -80 -64 0
v -96 -64 0
v -96 -48 0
v -80 -48 0
v -96 -64 0
v -112 -64 0
v -112 -48 0
v -96 -48 0
v -112 -64 0
v -128 -64 0
v -128 -48 0
v -112 -48 0
v -128 -64 0
v -144 -64 0
v -144 -48 0
v -128 -48 0
v -144 -64 0
v -160 -64 0
v -160 -48 0
v -144 -48 0
v -160 -64 0
v -176 -64 0
v -176 -48 0
v -160 -48 0
v -176 -64 0
v -192 -64 0
v -192 -48 0
v -176 -48 0
v -192 -64 0
v -208 -64 0
v -208 -48 0
v -192 -48 0
v -32 -80 0
v -48 -80 0
v -48 -64 0
v -32 -64 0
v -64 -80 0
v -80 -80 0
v -80 -64 0
v -64 -64 0
v -96 -80 0
v -112 -80 0
v -112 -64 0
v -96 -64 0
v -128 -80 0
v -144 -80 0
v -144 -64 0
v -128 -64 0
v -160 -80 0
v -176 -80 0
v -176 -64 0
v -160 -64 0
v -192 -80 0
v -208 -80 0
v -208 -64 0
v -192 -64 0
v -32 -96 0
v -48 -96 0
v -48 -80 0
v -32 -80 0
v -64 -96 0
v -80 -96 0
v -80 -80 0
v -64 -80 0
v -96 -96 0
v -112 -96 0
v -112 -80 0
v -96 -80 0
v -128 -96 0
v -144 -96 0
v -144 -80 0
v -128 -80 0
v -160 -96 0
v -176 -96 0
v -176 -80 0
v -160 -80 0
v -192 -96 0
v -208 -96 0
v -208 -80 0
v -192 -80 0
v -32 -112 0
v -48 -112 0
v -48 -96 0
v -32 -96 0
v -48 -112 0
v -64 -112 0
v -64 -96 0
v -48 -96 0
v -64 -112 0
v -80 -112 0
v -80 -96 0
v -64 -96 0
v -80 -112 0
v -96 -112 0
v -96 -96 0
v -80 -96 0
v -96 -112 0
v -112 -112 0
v -112 -96 0
v -96 -96 0
v -112 -112 0
v -128 -112 0
v -128 -96 0
v -112 -96 0
v -128 -112 0
v -144 -112 0
v -144 -96 0
v -128 -96 0
v -144 -112 0
v -160 -112 0
v -160 -96 0
v -144 -96 0
v -160 -112 0
v -176 -112 0
v -176 -96 0
v -160 -96 0
v -176 -112 0
v -192 -112 0
v -192 -96 0
v -176 -96 0
v -192 -112 0
v -208 -112 0
v -208 -96 0
v -192 -96 0
v -32 -144 0
v -48 -144 0
v -48 -128 0
v -32 -128 0
v -64 -144 0
v -80 -144 0
v -80 -128 0
v -64 -128 0
v -96 -144 0
v -112 -144 0
v -112 -128 0
v -96 -128 0
v -128 -144 0
v -144 -144 0
v -144 -128 0
v -128 -128 0
v -160 -144 0
v -176 -144 0
v -176 -128 0
v -160 -128 0
v -192 -144 0
v -208 -144 0
v -208 -128 0
v -192 -128 0
v -32 -160 0
v -48 -160 0
v -48 -144 0
v -32 -144 0
v -48 -160 0
v -64 -160 0
v -64 -144 0
v -48 -144 0
v -64 -160 0
v -80 -160 0
v -80 -144 0
v -64 -144 0
v -80 -160 0
v -96 -160 0
v -96 -144 0
v -80 -144 0
v -96 -160 0
v -112 -160 0
v -112 -144 0
v -96 -144 0
v -112 -160 0
v -128 -160 0
v -128 -144 0
v -112 -144 0
v -128 -160 0
v -144 -160 0
v -144 -144 0
v -128 -144 0
v -144 -160 0
v -160 -160 0
v -160 -144 0
v -144 -144 0
v -160 -160 0
v -176 -160 0
v -176 -144 0
v -160 -144 0
v -176 -160 0
v -192 -160 0
v -192 -144 0
v -176 -144 0
v -192 -160 0
v -208 -160 0
v -208 -144 0
v -192 -144 0
v -32 -176 0
v -48 -176 0
v -48 -160 0
v -32 -160 0
v -64 -176 0
v -80 -176 0
v -80 -160 0
v -64 -160 0
v -96 -176 0
v -112 -176 0
v -112 -160 0
v -96 -160 0
v -128 -176 0
v -144 -176 0
v -144 -160 0
v -128 -160 0
v -160 -176 0
v -176 -176 0
v -176 -160 0
v -160 -160 0
v -192 -176 0
v -208 -176 0
v -208 -160 0
v -192 -160 0
v -32 -192 0
v -48 -192 0
v -48 -176 0
v -32 -176 0
v -64 -192 0
v -80 -192 0
v -80 -176 0
v -64 -176 0
v -96 -192 0
v -112 -192 0
v -112 -176 0
v -96 -176 0
v -128 -192 0
v -144 -192 0
v -144 -176 0
v -128 -176 0
v -160 -192 0
v -176 -192 0
v -176 -176 0
v -160 -176 0
v -192 -192 0
v -208 -192 0
v -208 -176 0
v -192 -176 0
v -32 -208 0
v -48 -208 0
v -48 -192 0
v -32 -192 0
v -48 -208 0
v -64 -208 0
v -64 -192 0
v -48 -192 0
v -64 -208 0
v -80 -208 0
v -80 -192 0
v -64 -192 0
v -80 -208 0
v -96 -208 0
v -96 -192 0
v -80 -192 0
v -96 -208 0
v -112 -208 0
v -112 -192 0
v -96 -192 0
v -112 -208 0
v -128 -208 0
v -128 -192 0
v -112 -192 0
v -128 -208 0
v -144 -208 0
v -144 -192 0
v -128 -192 0
v -144 -208 0
v -160 -208 0
v -160 -192 0
v -144 -192 0
v -160 -208 0
v -176 -208 0
v -176 -192 0
v -160 -192 0
v -176 -208 0
v -192 -208 0
v -192 -192 0
v -176 -192 0
v -192 -208 0
v -208 -208 0
v -208 -192 0
v -192 -192 0
v -32 -240 0
v -48 -240 0
v -48 -224 0
v -32 -224 0
v -64 -240 0
v -80 -240 0
v -80 -224 0
v -64 -224 0
v -96 -240 0
v -112 -240 0
v -112 -224 0
v -96 -224 0
v -128 -240 0
v -144 -240 0
v -144 -224 0
v -128 -224 0
v -160 -240 0
v -176 -240 0
v -176 -224 0
v -160 -224 0
v -192 -240 0
v -208 -240 0
v -208 -224 0
v -192 -224 0

# Texture cooridinates (Count = 24)
vt 0.05 0.72
vt 0.05 0.68
vt 0.075 0.68
vt 0.075 0.72
vt 0.025 0.68
vt 0.025 0.72
vt 0.075 0.6
vt 0.1 0.6
vt 0.1 0.64
vt 0.075 0.64
vt 0.125 0.6
vt 0.125 0.64
vt 0 0.6
vt 0.025 0.6
vt 0.025 0.64
vt 0 0.64
vt 0.05 0.6
vt 0.05 0.64
vt 0.125 0.8
vt 0.15 0.8
vt 0.15 0.84
vt 0.125 0.84
vt 0 0.68
vt 0 0.72

# Normal
vn 0 0 -1

# Mesh description
g Mina_mesh_0005

# Faces
f 1/1/1 2/2/1 3/3/1 4/4/1
f 5/5/1 6/2/1 7/1/1 8/6/1
f 9/5/1 10/2/1 11/1/1 12/6/1
f 13/5/1 14/2/1 15/1/1 16/6/1
f 17/5/1 18/2/1 19/1/1 20/6/1
f 21/5/1 22/2/1 23/1/1 24/6/1
f 25/5/1 26/2/1 27/1/1 28/6/1
f 29/5/1 30/2/1 31/1/1 32/6/1
f 33/5/1 34/2/1 35/1/1 36/6/1
f 37/5/1 38/2/1 39/1/1 40/6/1
f 41/2/1 42/3/1 43/4/1 44/1/1
f 45/7/1 46/8/1 47/9/1 48/10/1
f 49/8/1 50/11/1 51/12/1 52/9/1
f 53/7/1 54/8/1 55/9/1 56/10/1
f 57/8/1 58/11/1 59/12/1 60/9/1
f 61/7/1 62/8/1 63/9/1 64/10/1
f 65/8/1 66/11/1 67/12/1 68/9/1
f 69/8/1 70/11/1 71/12/1 72/9/1
f 73/7/1 74/8/1 75/9/1 76/10/1
f 77/8/1 78/11/1 79/12/1 80/9/1
f 81/7/1 82/8/1 83/9/1 84/10/1
f 85/8/1 86/11/1 87/12/1 88/9/1
f 89/7/1 90/8/1 91/9/1 92/10/1
f 93/13/1 94/14/1 95/15/1 96/16/1
f 97/14/1 98/17/1 99/18/1 100/15/1
f 101/14/1 102/17/1 103/18/1 104/15/1
f 105/14/1 106/17/1 107/18/1 108/15/1
f 109/14/1 110/17/1 111/18/1 112/15/1
f 113/14/1 114/17/1 115/18/1 116/15/1
f 117/14/1 118/17/1 119/18/1 120/15/1
f 121/14/1 122/17/1 123/18/1 124/15/1
f 125/14/1 126/17/1 127/18/1 128/15/1
f 129/14/1 130/17/1 131/18/1 132/15/1
f 133/17/1 134/7/1 135/10/1 136/18/1
f 137/19/1 138/20/1 139/21/1 140/22/1
f 141/19/1 142/20/1 143/21/1 144/22/1
f 145/19/1 146/20/1 147/21/1 148/22/1
f 149/19/1 150/20/1 151/21/1 152/22/1
f 153/19/1 154/20/1 155/21/1 156/22/1
f 157/19/1 158/20/1 159/21/1 160/22/1
f 161/23/1 162/5/1 163/6/1 164/24/1
f 165/5/1 166/2/1 167/1/1 168/6/1
f 169/5/1 170/2/1 171/1/1 172/6/1
f 173/5/1 174/2/1 175/1/1 176/6/1
f 177/5/1 178/2/1 179/1/1 180/6/1
f 181/5/1 182/2/1 183/1/1 184/6/1
f 185/5/1 186/2/1 187/1/1 188/6/1
f 189/5/1 190/2/1 191/1/1 192/6/1
f 193/5/1 194/2/1 195/1/1 196/6/1
f 197/5/1 198/2/1 199/1/1 200/6/1
f 201/15/1 202/16/1 203/13/1 204/14/1
f 205/11/1 206/12/1 207/9/1 208/8/1
f 209/8/1 210/11/1 211/12/1 212/9/1
f 213/11/1 214/12/1 215/9/1 216/8/1
f 217/8/1 218/11/1 219/12/1 220/9/1
f 221/7/1 222/8/1 223/9/1 224/10/1
f 225/8/1 226/11/1 227/12/1 228/9/1
f 229/8/1 230/9/1 231/10/1 232/7/1
f 233/11/1 234/12/1 235/9/1 236/8/1
f 237/8/1 238/11/1 239/12/1 240/9/1
f 241/9/1 242/10/1 243/7/1 244/8/1
f 245/12/1 246/9/1 247/8/1 248/11/1
f 249/11/1 250/12/1 251/9/1 252/8/1
f 253/13/1 254/14/1 255/15/1 256/16/1
f 257/14/1 258/17/1 259/18/1 260/15/1
f 261/14/1 262/17/1 263/18/1 264/15/1
f 265/14/1 266/17/1 267/18/1 268/15/1
f 269/14/1 270/17/1 271/18/1 272/15/1
f 273/14/1 274/17/1 275/18/1 276/15/1
f 277/14/1 278/17/1 279/18/1 280/15/1
f 281/14/1 282/17/1 283/18/1 284/15/1
f 285/14/1 286/17/1 287/18/1 288/15/1
f 289/14/1 290/17/1 291/18/1 292/15/1
f 293/16/1 294/13/1 295/14/1 296/15/1
f 297/19/1 298/20/1 299/21/1 300/22/1
f 301/19/1 302/20/1 303/21/1 304/22/1
f 305/19/1 306/20/1 307/21/1 308/22/1
f 309/19/1 310/20/1 311/21/1 312/22/1
f 313/19/1 314/20/1 315/21/1 316/22/1
f 317/19/1 318/20/1 319/21/1 320/22/1

