# Tiled2Unity generated file. Do not modify by hand.
# Wavefront file for 'Mina_mesh_0017.obj'

# Vertices (Count = 24)
v -32 -96 0
v -40 -96 0
v -40 -88 0
v -32 -88 0
v -64 -96 0
v -72 -96 0
v -72 -88 0
v -64 -88 0
v -96 -96 0
v -104 -96 0
v -104 -88 0
v -96 -88 0
v -128 -96 0
v -136 -96 0
v -136 -88 0
v -128 -88 0
v -160 -96 0
v -168 -96 0
v -168 -88 0
v -160 -88 0
v -192 -96 0
v -200 -96 0
v -200 -88 0
v -192 -88 0

# Texture cooridinates (Count = 24)
vt 0.1333333 0.7222222
vt 0.1666667 0.7222222
vt 0.1666667 0.7777778
vt 0.1333333 0.7777778
vt 0.2 0.9444444
vt 0.2333333 0.9444444
vt 0.2333333 1
vt 0.2 1
vt 0.9333333 0.7777778
vt 0.9666666 0.7777778
vt 0.9666666 0.8333333
vt 0.9333333 0.8333333
vt 0.1333333 0.8333333
vt 0.1666667 0.8333333
vt 0.1666667 0.8888889
vt 0.1333333 0.8888889
vt 0.9333333 0.8888889
vt 0.9666666 0.8888889
vt 0.9666666 0.9444444
vt 0.9333333 0.9444444
vt 0.06666667 0.9444444
vt 0.1 0.9444444
vt 0.1 1
vt 0.06666667 1

# Normal
vn 0 0 -1

# Mesh description
g Mina_mesh_0017

# Faces
f 1/1/1 2/2/1 3/3/1 4/4/1
f 5/5/1 6/6/1 7/7/1 8/8/1
f 9/9/1 10/10/1 11/11/1 12/12/1
f 13/13/1 14/14/1 15/15/1 16/16/1
f 17/17/1 18/18/1 19/19/1 20/20/1
f 21/21/1 22/22/1 23/23/1 24/24/1

