# Tiled2Unity generated file. Do not modify by hand.
# Wavefront file for 'Vila_mesh_0002.obj'

# Vertices (Count = 600)
v 0 -16 0
v -16 -16 0
v -16 0 0
v 0 0 0
v -192 -16 0
v -208 -16 0
v -208 0 0
v -192 0 0
v -208 -16 0
v -224 -16 0
v -224 0 0
v -208 0 0
v -224 -16 0
v -240 -16 0
v -240 0 0
v -224 0 0
v -240 -16 0
v -256 -16 0
v -256 0 0
v -240 0 0
v -256 -16 0
v -272 -16 0
v -272 0 0
v -256 0 0
v -272 -16 0
v -288 -16 0
v -288 0 0
v -272 0 0
v -288 -16 0
v -304 -16 0
v -304 0 0
v -288 0 0
v -304 -16 0
v -320 -16 0
v -320 0 0
v -304 0 0
v 0 -32 0
v -16 -32 0
v -16 -16 0
v 0 -16 0
v -176 -32 0
v -192 -32 0
v -192 -16 0
v -176 -16 0
v -192 -32 0
v -208 -32 0
v -208 -16 0
v -192 -16 0
v -208 -32 0
v -224 -32 0
v -224 -16 0
v -208 -16 0
v -304 -32 0
v -320 -32 0
v -320 -16 0
v -304 -16 0
v 0 -48 0
v -16 -48 0
v -16 -32 0
v 0 -32 0
v -176 -48 0
v -192 -48 0
v -192 -32 0
v -176 -32 0
v -192 -48 0
v -208 -48 0
v -208 -32 0
v -192 -32 0
v -208 -48 0
v -224 -48 0
v -224 -32 0
v -208 -32 0
v -304 -48 0
v -320 -48 0
v -320 -32 0
v -304 -32 0
v 0 -64 0
v -16 -64 0
v -16 -48 0
v 0 -48 0
v -176 -64 0
v -192 -64 0
v -192 -48 0
v -176 -48 0
v -208 -64 0
v -224 -64 0
v -224 -48 0
v -208 -48 0
v -304 -64 0
v -320 -64 0
v -320 -48 0
v -304 -48 0
v 0 -80 0
v -16 -80 0
v -16 -64 0
v 0 -64 0
v -160 -80 0
v -176 -80 0
v -176 -64 0
v -160 -64 0
v -176 -80 0
v -192 -80 0
v -192 -64 0
v -176 -64 0
v -208 -80 0
v -224 -80 0
v -224 -64 0
v -208 -64 0
v -304 -80 0
v -320 -80 0
v -320 -64 0
v -304 -64 0
v 0 -96 0
v -16 -96 0
v -16 -80 0
v 0 -80 0
v -160 -96 0
v -176 -96 0
v -176 -80 0
v -160 -80 0
v -176 -96 0
v -192 -96 0
v -192 -80 0
v -176 -80 0
v -208 -96 0
v -224 -96 0
v -224 -80 0
v -208 -80 0
v -304 -96 0
v -320 -96 0
v -320 -80 0
v -304 -80 0
v 0 -112 0
v -16 -112 0
v -16 -96 0
v 0 -96 0
v -144 -112 0
v -160 -112 0
v -160 -96 0
v -144 -96 0
v -160 -112 0
v -176 -112 0
v -176 -96 0
v -160 -96 0
v -208 -112 0
v -224 -112 0
v -224 -96 0
v -208 -96 0
v -224 -112 0
v -240 -112 0
v -240 -96 0
v -224 -96 0
v -240 -112 0
v -256 -112 0
v -256 -96 0
v -240 -96 0
v -256 -112 0
v -272 -112 0
v -272 -96 0
v -256 -96 0
v -272 -112 0
v -288 -112 0
v -288 -96 0
v -272 -96 0
v -288 -112 0
v -304 -112 0
v -304 -96 0
v -288 -96 0
v -304 -112 0
v -320 -112 0
v -320 -96 0
v -304 -96 0
v 0 -128 0
v -16 -128 0
v -16 -112 0
v 0 -112 0
v -64 -128 0
v -80 -128 0
v -80 -112 0
v -64 -112 0
v -80 -128 0
v -96 -128 0
v -96 -112 0
v -80 -112 0
v -96 -128 0
v -112 -128 0
v -112 -112 0
v -96 -112 0
v -144 -128 0
v -160 -128 0
v -160 -112 0
v -144 -112 0
v -208 -128 0
v -224 -128 0
v -224 -112 0
v -208 -112 0
v -224 -128 0
v -240 -128 0
v -240 -112 0
v -224 -112 0
v -240 -128 0
v -256 -128 0
v -256 -112 0
v -240 -112 0
v -256 -128 0
v -272 -128 0
v -272 -112 0
v -256 -112 0
v -272 -128 0
v -288 -128 0
v -288 -112 0
v -272 -112 0
v -288 -128 0
v -304 -128 0
v -304 -112 0
v -288 -112 0
v -304 -128 0
v -320 -128 0
v -320 -112 0
v -304 -112 0
v 0 -144 0
v -16 -144 0
v -16 -128 0
v 0 -128 0
v -16 -144 0
v -32 -144 0
v -32 -128 0
v -16 -128 0
v -32 -144 0
v -48 -144 0
v -48 -128 0
v -32 -128 0
v -48 -144 0
v -64 -144 0
v -64 -128 0
v -48 -128 0
v -64 -144 0
v -80 -144 0
v -80 -128 0
v -64 -128 0
v -80 -144 0
v -96 -144 0
v -96 -128 0
v -80 -128 0
v -96 -144 0
v -112 -144 0
v -112 -128 0
v -96 -128 0
v -112 -144 0
v -128 -144 0
v -128 -128 0
v -112 -128 0
v -128 -144 0
v -144 -144 0
v -144 -128 0
v -128 -128 0
v -144 -144 0
v -160 -144 0
v -160 -128 0
v -144 -128 0
v -208 -144 0
v -224 -144 0
v -224 -128 0
v -208 -128 0
v -224 -144 0
v -240 -144 0
v -240 -128 0
v -224 -128 0
v -240 -144 0
v -256 -144 0
v -256 -128 0
v -240 -128 0
v -256 -144 0
v -272 -144 0
v -272 -128 0
v -256 -128 0
v -272 -144 0
v -288 -144 0
v -288 -128 0
v -272 -128 0
v -288 -144 0
v -304 -144 0
v -304 -128 0
v -288 -128 0
v -304 -144 0
v -320 -144 0
v -320 -128 0
v -304 -128 0
v 0 -160 0
v -16 -160 0
v -16 -144 0
v 0 -144 0
v -16 -160 0
v -32 -160 0
v -32 -144 0
v -16 -144 0
v -32 -160 0
v -48 -160 0
v -48 -144 0
v -32 -144 0
v -48 -160 0
v -64 -160 0
v -64 -144 0
v -48 -144 0
v -64 -160 0
v -80 -160 0
v -80 -144 0
v -64 -144 0
v -80 -160 0
v -96 -160 0
v -96 -144 0
v -80 -144 0
v -96 -160 0
v -112 -160 0
v -112 -144 0
v -96 -144 0
v -112 -160 0
v -128 -160 0
v -128 -144 0
v -112 -144 0
v -128 -160 0
v -144 -160 0
v -144 -144 0
v -128 -144 0
v -144 -160 0
v -160 -160 0
v -160 -144 0
v -144 -144 0
v -160 -160 0
v -176 -160 0
v -176 -144 0
v -160 -144 0
v -208 -160 0
v -224 -160 0
v -224 -144 0
v -208 -144 0
v -224 -160 0
v -240 -160 0
v -240 -144 0
v -224 -144 0
v -240 -160 0
v -256 -160 0
v -256 -144 0
v -240 -144 0
v -256 -160 0
v -272 -160 0
v -272 -144 0
v -256 -144 0
v -272 -160 0
v -288 -160 0
v -288 -144 0
v -272 -144 0
v -288 -160 0
v -304 -160 0
v -304 -144 0
v -288 -144 0
v -304 -160 0
v -320 -160 0
v -320 -144 0
v -304 -144 0
v 0 -176 0
v -16 -176 0
v -16 -160 0
v 0 -160 0
v -16 -176 0
v -32 -176 0
v -32 -160 0
v -16 -160 0
v -32 -176 0
v -48 -176 0
v -48 -160 0
v -32 -160 0
v -48 -176 0
v -64 -176 0
v -64 -160 0
v -48 -160 0
v -64 -176 0
v -80 -176 0
v -80 -160 0
v -64 -160 0
v -96 -176 0
v -112 -176 0
v -112 -160 0
v -96 -160 0
v -112 -176 0
v -128 -176 0
v -128 -160 0
v -112 -160 0
v -128 -176 0
v -144 -176 0
v -144 -160 0
v -128 -160 0
v -144 -176 0
v -160 -176 0
v -160 -160 0
v -144 -160 0
v -160 -176 0
v -176 -176 0
v -176 -160 0
v -160 -160 0
v -96 -240 0
v -112 -240 0
v -112 -224 0
v -96 -224 0
v -208 -240 0
v -224 -240 0
v -224 -224 0
v -208 -224 0
v -224 -240 0
v -240 -240 0
v -240 -224 0
v -224 -224 0
v -240 -240 0
v -256 -240 0
v -256 -224 0
v -240 -224 0
v -256 -240 0
v -272 -240 0
v -272 -224 0
v -256 -224 0
v -96 -256 0
v -112 -256 0
v -112 -240 0
v -96 -240 0
v -112 -256 0
v -128 -256 0
v -128 -240 0
v -112 -240 0
v -160 -256 0
v -176 -256 0
v -176 -240 0
v -160 -240 0
v -176 -256 0
v -192 -256 0
v -192 -240 0
v -176 -240 0
v -208 -256 0
v -224 -256 0
v -224 -240 0
v -208 -240 0
v -224 -256 0
v -240 -256 0
v -240 -240 0
v -224 -240 0
v -240 -256 0
v -256 -256 0
v -256 -240 0
v -240 -240 0
v -256 -256 0
v -272 -256 0
v -272 -240 0
v -256 -240 0
v -160 -272 0
v -176 -272 0
v -176 -256 0
v -160 -256 0
v -176 -272 0
v -192 -272 0
v -192 -256 0
v -176 -256 0
v -208 -272 0
v -224 -272 0
v -224 -256 0
v -208 -256 0
v -224 -272 0
v -240 -272 0
v -240 -256 0
v -224 -256 0
v -240 -272 0
v -256 -272 0
v -256 -256 0
v -240 -256 0
v -256 -272 0
v -272 -272 0
v -272 -256 0
v -256 -256 0
v -112 -288 0
v -128 -288 0
v -128 -272 0
v -112 -272 0
v -128 -288 0
v -144 -288 0
v -144 -272 0
v -128 -272 0
v -144 -288 0
v -160 -288 0
v -160 -272 0
v -144 -272 0
v -160 -288 0
v -176 -288 0
v -176 -272 0
v -160 -272 0
v -208 -288 0
v -224 -288 0
v -224 -272 0
v -208 -272 0
v -224 -288 0
v -240 -288 0
v -240 -272 0
v -224 -272 0
v -240 -288 0
v -256 -288 0
v -256 -272 0
v -240 -272 0
v -256 -288 0
v -272 -288 0
v -272 -272 0
v -256 -272 0
v -96 -304 0
v -112 -304 0
v -112 -288 0
v -96 -288 0
v -112 -304 0
v -128 -304 0
v -128 -288 0
v -112 -288 0
v -160 -304 0
v -176 -304 0
v -176 -288 0
v -160 -288 0
v -208 -304 0
v -224 -304 0
v -224 -288 0
v -208 -288 0
v -224 -304 0
v -240 -304 0
v -240 -288 0
v -224 -288 0
v -240 -304 0
v -256 -304 0
v -256 -288 0
v -240 -288 0
v -256 -304 0
v -272 -304 0
v -272 -288 0
v -256 -288 0
v -272 -304 0
v -288 -304 0
v -288 -288 0
v -272 -288 0
v -288 -304 0
v -304 -304 0
v -304 -288 0
v -288 -288 0
v -304 -304 0
v -320 -304 0
v -320 -288 0
v -304 -288 0
v 0 -320 0
v -16 -320 0
v -16 -304 0
v 0 -304 0
v -16 -320 0
v -32 -320 0
v -32 -304 0
v -16 -304 0
v -32 -320 0
v -48 -320 0
v -48 -304 0
v -32 -304 0
v -112 -320 0
v -128 -320 0
v -128 -304 0
v -112 -304 0
v -160 -320 0
v -176 -320 0
v -176 -304 0
v -160 -304 0
v -176 -320 0
v -192 -320 0
v -192 -304 0
v -176 -304 0
v -208 -320 0
v -224 -320 0
v -224 -304 0
v -208 -304 0
v -224 -320 0
v -240 -320 0
v -240 -304 0
v -224 -304 0
v -240 -320 0
v -256 -320 0
v -256 -304 0
v -240 -304 0
v -256 -320 0
v -272 -320 0
v -272 -304 0
v -256 -304 0
v -272 -320 0
v -288 -320 0
v -288 -304 0
v -272 -304 0
v -288 -320 0
v -304 -320 0
v -304 -304 0
v -288 -304 0
v -304 -320 0
v -320 -320 0
v -320 -304 0
v -304 -304 0

# Texture cooridinates (Count = 115)
vt 0.1 0.7222222
vt 0.125 0.7222222
vt 0.125 0.75
vt 0.1 0.75
vt 0.15 0.6666666
vt 0.175 0.6666666
vt 0.175 0.6944444
vt 0.15 0.6944444
vt 0.125 0.6666666
vt 0.125 0.6944444
vt 0.1 0.6944444
vt 0.1 0.6666666
vt 0.175 0.7222222
vt 0.15 0.7222222
vt 0.175 0.6388889
vt 0.2 0.6388889
vt 0.2 0.6666666
vt 0.125 0.5555556
vt 0.15 0.5555556
vt 0.15 0.5833334
vt 0.125 0.5833334
vt 0.175 0.5833334
vt 0.175 0.6111111
vt 0.15 0.6111111
vt 0.075 0.6666666
vt 0.075 0.6944444
vt 0 0.9722222
vt 0.025 0.9722222
vt 0.025 1
vt 0 1
vt 0.025 0.75
vt 0.05 0.75
vt 0.05 0.7777778
vt 0.025 0.7777778
vt 0.3 0.8333333
vt 0.325 0.8333333
vt 0.325 0.8611111
vt 0.3 0.8611111
vt 0.1 0.6111111
vt 0.125 0.6111111
vt 0.125 0.6388889
vt 0.1 0.6388889
vt 0.15 0.6388889
vt 0.1 0.5833334
vt 0.2 0.5833334
vt 0.2 0.6111111
vt 0.1 0.5555556
vt 0.175 0.5555556
vt 0.2 0.5555556
vt 0 0.1666667
vt 0.025 0.1666667
vt 0.025 0.1944444
vt 0 0.1944444
vt 0.05 0.1666667
vt 0.05 0.1944444
vt 0.075 0.1666667
vt 0.075 0.1944444
vt 0.075 0.6388889
vt 0 0.1388889
vt 0.025 0.1388889
vt 0 0
vt 0.025 0
vt 0.025 0.02777779
vt 0 0.02777779
vt 0.05 0.02777779
vt 0.05 0.05555558
vt 0.025 0.05555558
vt 0.05 0.1388889
vt 0.075 0.1388889
vt 0 0.75
vt 0 0.7777778
vt 0 0.05555558
vt 0.125 0.8055556
vt 0.15 0.8055556
vt 0.15 0.8333333
vt 0.125 0.8333333
vt 0.175 0.8055556
vt 0.175 0.8333333
vt 0.2 0.8055556
vt 0.2 0.8333333
vt 0.125 0.9722222
vt 0.15 0.9722222
vt 0.15 1
vt 0.125 1
vt 0.125 0.7777778
vt 0.15 0.7777778
vt 0.175 0.7777778
vt 0.2 0.7777778
vt 0.3 0.1944444
vt 0.3 0.2222222
vt 0.275 0.2222222
vt 0.275 0.1944444
vt 0.125 0.5277778
vt 0.15 0.5277778
vt 0.125 0.4722222
vt 0.15 0.4722222
vt 0.15 0.5
vt 0.125 0.5
vt 0.175 0.5277778
vt 0.075 0.9722222
vt 0.1 0.9722222
vt 0.1 1
vt 0.075 1
vt 0.375 0.1388889
vt 0.4 0.1388889
vt 0.4 0.1666667
vt 0.375 0.1666667
vt 0.175 0.4722222
vt 0.175 0.5
vt 0.05 0.5277778
vt 0.075 0.5277778
vt 0.075 0.5555556
vt 0.05 0.5555556
vt 0.2 0.4722222
vt 0.2 0.5

# Normal
vn 0 0 -1

# Mesh description
g Vila_mesh_0002

# Faces
f 1/1/1 2/2/1 3/3/1 4/4/1
f 5/5/1 6/6/1 7/7/1 8/8/1
f 9/9/1 10/10/1 11/11/1 12/12/1
f 13/8/1 14/10/1 15/9/1 16/5/1
f 17/8/1 18/10/1 19/9/1 20/5/1
f 21/8/1 22/10/1 23/9/1 24/5/1
f 25/8/1 26/10/1 27/9/1 28/5/1
f 29/8/1 30/10/1 31/9/1 32/5/1
f 33/8/1 34/5/1 35/6/1 36/7/1
f 37/11/1 38/10/1 39/2/1 40/1/1
f 41/8/1 42/7/1 43/13/1 44/14/1
f 45/15/1 46/16/1 47/17/1 48/6/1
f 49/11/1 50/10/1 51/2/1 52/1/1
f 53/8/1 54/7/1 55/13/1 56/14/1
f 57/11/1 58/10/1 59/2/1 60/1/1
f 61/8/1 62/7/1 63/13/1 64/14/1
f 65/18/1 66/19/1 67/20/1 68/21/1
f 69/11/1 70/10/1 71/2/1 72/1/1
f 73/8/1 74/7/1 75/13/1 76/14/1
f 77/11/1 78/10/1 79/2/1 80/1/1
f 81/5/1 82/6/1 83/7/1 84/8/1
f 85/11/1 86/10/1 87/2/1 88/1/1
f 89/8/1 90/7/1 91/13/1 92/14/1
f 93/11/1 94/10/1 95/2/1 96/1/1
f 97/8/1 98/7/1 99/13/1 100/14/1
f 101/20/1 102/22/1 103/23/1 104/24/1
f 105/11/1 106/10/1 107/2/1 108/1/1
f 109/8/1 110/7/1 111/13/1 112/14/1
f 113/11/1 114/10/1 115/2/1 116/1/1
f 117/5/1 118/6/1 119/7/1 120/8/1
f 121/18/1 122/19/1 123/20/1 124/21/1
f 125/11/1 126/10/1 127/2/1 128/1/1
f 129/8/1 130/7/1 131/13/1 132/14/1
f 133/11/1 134/10/1 135/2/1 136/1/1
f 137/8/1 138/7/1 139/13/1 140/14/1
f 141/20/1 142/22/1 143/23/1 144/24/1
f 145/11/1 146/10/1 147/2/1 148/1/1
f 149/25/1 150/12/1 151/11/1 152/26/1
f 153/27/1 154/28/1 155/29/1 156/30/1
f 157/27/1 158/28/1 159/29/1 160/30/1
f 161/27/1 162/28/1 163/29/1 164/30/1
f 165/31/1 166/32/1 167/33/1 168/34/1
f 169/8/1 170/7/1 171/13/1 172/14/1
f 173/11/1 174/10/1 175/2/1 176/1/1
f 177/35/1 178/36/1 179/37/1 180/38/1
f 181/35/1 182/36/1 183/37/1 184/38/1
f 185/1/1 186/2/1 187/3/1 188/4/1
f 189/8/1 190/7/1 191/13/1 192/14/1
f 193/12/1 194/9/1 195/10/1 196/11/1
f 197/9/1 198/5/1 199/8/1 200/10/1
f 201/5/1 202/6/1 203/7/1 204/8/1
f 205/35/1 206/36/1 207/37/1 208/38/1
f 209/12/1 210/9/1 211/10/1 212/11/1
f 213/9/1 214/5/1 215/8/1 216/10/1
f 217/5/1 218/6/1 219/7/1 220/8/1
f 221/12/1 222/9/1 223/10/1 224/11/1
f 225/9/1 226/5/1 227/8/1 228/10/1
f 229/9/1 230/5/1 231/8/1 232/10/1
f 233/5/1 234/6/1 235/7/1 236/8/1
f 237/35/1 238/36/1 239/37/1 240/38/1
f 241/35/1 242/36/1 243/37/1 244/38/1
f 245/12/1 246/9/1 247/10/1 248/11/1
f 249/9/1 250/5/1 251/8/1 252/10/1
f 253/9/1 254/5/1 255/8/1 256/10/1
f 257/5/1 258/6/1 259/7/1 260/8/1
f 261/39/1 262/40/1 263/41/1 264/42/1
f 265/40/1 266/24/1 267/43/1 268/41/1
f 269/40/1 270/24/1 271/43/1 272/41/1
f 273/35/1 274/36/1 275/37/1 276/38/1
f 277/39/1 278/40/1 279/41/1 280/42/1
f 281/40/1 282/24/1 283/43/1 284/41/1
f 285/40/1 286/24/1 287/43/1 288/41/1
f 289/44/1 290/21/1 291/40/1 292/39/1
f 293/21/1 294/20/1 295/24/1 296/40/1
f 297/21/1 298/20/1 299/24/1 300/40/1
f 301/21/1 302/20/1 303/24/1 304/40/1
f 305/35/1 306/36/1 307/37/1 308/38/1
f 309/35/1 310/36/1 311/37/1 312/38/1
f 313/44/1 314/21/1 315/40/1 316/39/1
f 317/21/1 318/20/1 319/24/1 320/40/1
f 321/21/1 322/20/1 323/24/1 324/40/1
f 325/20/1 326/22/1 327/23/1 328/24/1
f 329/22/1 330/45/1 331/46/1 332/23/1
f 333/44/1 334/21/1 335/40/1 336/39/1
f 337/21/1 338/20/1 339/24/1 340/40/1
f 341/20/1 342/22/1 343/23/1 344/24/1
f 345/35/1 346/36/1 347/37/1 348/38/1
f 349/44/1 350/21/1 351/40/1 352/39/1
f 353/21/1 354/20/1 355/24/1 356/40/1
f 357/20/1 358/22/1 359/23/1 360/24/1
f 361/47/1 362/18/1 363/21/1 364/44/1
f 365/18/1 366/19/1 367/20/1 368/21/1
f 369/18/1 370/19/1 371/20/1 372/21/1
f 373/19/1 374/48/1 375/22/1 376/20/1
f 377/48/1 378/49/1 379/45/1 380/22/1
f 381/47/1 382/18/1 383/21/1 384/44/1
f 385/18/1 386/19/1 387/20/1 388/21/1
f 389/18/1 390/19/1 391/20/1 392/21/1
f 393/19/1 394/48/1 395/22/1 396/20/1
f 397/48/1 398/49/1 399/45/1 400/22/1
f 401/31/1 402/32/1 403/33/1 404/34/1
f 405/50/1 406/51/1 407/52/1 408/53/1
f 409/51/1 410/54/1 411/55/1 412/52/1
f 413/51/1 414/54/1 415/55/1 416/52/1
f 417/54/1 418/56/1 419/57/1 420/55/1
f 421/25/1 422/12/1 423/11/1 424/26/1
f 425/31/1 426/32/1 427/33/1 428/34/1
f 429/58/1 430/42/1 431/12/1 432/25/1
f 433/25/1 434/12/1 435/11/1 436/26/1
f 437/59/1 438/60/1 439/51/1 440/50/1
f 441/61/1 442/62/1 443/63/1 444/64/1
f 445/63/1 446/65/1 447/66/1 448/67/1
f 449/68/1 450/69/1 451/56/1 452/54/1
f 453/31/1 454/32/1 455/33/1 456/34/1
f 457/70/1 458/31/1 459/34/1 460/71/1
f 461/59/1 462/60/1 463/51/1 464/50/1
f 465/64/1 466/63/1 467/67/1 468/72/1
f 469/61/1 470/62/1 471/63/1 472/64/1
f 473/68/1 474/69/1 475/56/1 476/54/1
f 477/73/1 478/74/1 479/75/1 480/76/1
f 481/74/1 482/77/1 483/78/1 484/75/1
f 485/74/1 486/77/1 487/78/1 488/75/1
f 489/77/1 490/79/1 491/80/1 492/78/1
f 493/59/1 494/60/1 495/51/1 496/50/1
f 497/61/1 498/62/1 499/63/1 500/64/1
f 501/63/1 502/65/1 503/66/1 504/67/1
f 505/68/1 506/69/1 507/56/1 508/54/1
f 509/81/1 510/82/1 511/83/1 512/84/1
f 513/85/1 514/86/1 515/74/1 516/73/1
f 517/87/1 518/88/1 519/79/1 520/77/1
f 521/89/1 522/90/1 523/91/1 524/92/1
f 525/93/1 526/94/1 527/19/1 528/18/1
f 529/95/1 530/96/1 531/97/1 532/98/1
f 533/95/1 534/96/1 535/97/1 536/98/1
f 537/95/1 538/96/1 539/97/1 540/98/1
f 541/95/1 542/96/1 543/97/1 544/98/1
f 545/94/1 546/99/1 547/48/1 548/19/1
f 549/7/1 550/8/1 551/5/1 552/6/1
f 553/8/1 554/10/1 555/9/1 556/5/1
f 557/10/1 558/11/1 559/12/1 560/9/1
f 561/85/1 562/86/1 563/74/1 564/73/1
f 565/87/1 566/88/1 567/79/1 568/77/1
f 569/100/1 570/101/1 571/102/1 572/103/1
f 573/104/1 574/105/1 575/106/1 576/107/1
f 577/96/1 578/108/1 579/109/1 580/97/1
f 581/110/1 582/111/1 583/112/1 584/113/1
f 585/110/1 586/111/1 587/112/1 588/113/1
f 589/110/1 590/111/1 591/112/1 592/113/1
f 593/110/1 594/111/1 595/112/1 596/113/1
f 597/108/1 598/114/1 599/115/1 600/109/1

