# Tiled2Unity generated file. Do not modify by hand.
# Wavefront file for 'Vila_mesh_0011.obj'

# Vertices (Count = 424)
v 0 -16 0
v -16 -16 0
v -16 0 0
v 0 0 0
v -16 -16 0
v -32 -16 0
v -32 0 0
v -16 0 0
v -32 -16 0
v -48 -16 0
v -48 0 0
v -32 0 0
v -48 -16 0
v -64 -16 0
v -64 0 0
v -48 0 0
v -64 -16 0
v -80 -16 0
v -80 0 0
v -64 0 0
v -80 -16 0
v -96 -16 0
v -96 0 0
v -80 0 0
v -96 -16 0
v -112 -16 0
v -112 0 0
v -96 0 0
v -112 -16 0
v -128 -16 0
v -128 0 0
v -112 0 0
v -128 -16 0
v -144 -16 0
v -144 0 0
v -128 0 0
v -144 -16 0
v -160 -16 0
v -160 0 0
v -144 0 0
v -160 -16 0
v -176 -16 0
v -176 0 0
v -160 0 0
v -176 -16 0
v -192 -16 0
v -192 0 0
v -176 0 0
v -224 -16 0
v -240 -16 0
v -240 0 0
v -224 0 0
v -240 -16 0
v -256 -16 0
v -256 0 0
v -240 0 0
v -256 -16 0
v -272 -16 0
v -272 0 0
v -256 0 0
v -272 -16 0
v -288 -16 0
v -288 0 0
v -272 0 0
v -288 -16 0
v -304 -16 0
v -304 0 0
v -288 0 0
v 0 -32 0
v -16 -32 0
v -16 -16 0
v 0 -16 0
v -16 -32 0
v -32 -32 0
v -32 -16 0
v -16 -16 0
v -32 -32 0
v -48 -32 0
v -48 -16 0
v -32 -16 0
v -48 -32 0
v -64 -32 0
v -64 -16 0
v -48 -16 0
v -64 -32 0
v -80 -32 0
v -80 -16 0
v -64 -16 0
v -80 -32 0
v -96 -32 0
v -96 -16 0
v -80 -16 0
v -96 -32 0
v -112 -32 0
v -112 -16 0
v -96 -16 0
v -112 -32 0
v -128 -32 0
v -128 -16 0
v -112 -16 0
v -128 -32 0
v -144 -32 0
v -144 -16 0
v -128 -16 0
v -144 -32 0
v -160 -32 0
v -160 -16 0
v -144 -16 0
v -160 -32 0
v -176 -32 0
v -176 -16 0
v -160 -16 0
v -176 -32 0
v -192 -32 0
v -192 -16 0
v -176 -16 0
v -224 -32 0
v -240 -32 0
v -240 -16 0
v -224 -16 0
v -240 -32 0
v -256 -32 0
v -256 -16 0
v -240 -16 0
v -256 -32 0
v -272 -32 0
v -272 -16 0
v -256 -16 0
v -272 -32 0
v -288 -32 0
v -288 -16 0
v -272 -16 0
v -288 -32 0
v -304 -32 0
v -304 -16 0
v -288 -16 0
v 0 -48 0
v -16 -48 0
v -16 -32 0
v 0 -32 0
v -16 -48 0
v -32 -48 0
v -32 -32 0
v -16 -32 0
v -32 -48 0
v -48 -48 0
v -48 -32 0
v -32 -32 0
v -48 -48 0
v -64 -48 0
v -64 -32 0
v -48 -32 0
v -64 -48 0
v -80 -48 0
v -80 -32 0
v -64 -32 0
v -80 -48 0
v -96 -48 0
v -96 -32 0
v -80 -32 0
v -96 -48 0
v -112 -48 0
v -112 -32 0
v -96 -32 0
v -112 -48 0
v -128 -48 0
v -128 -32 0
v -112 -32 0
v -128 -48 0
v -144 -48 0
v -144 -32 0
v -128 -32 0
v -144 -48 0
v -160 -48 0
v -160 -32 0
v -144 -32 0
v -160 -48 0
v -176 -48 0
v -176 -32 0
v -160 -32 0
v -176 -48 0
v -192 -48 0
v -192 -32 0
v -176 -32 0
v -224 -48 0
v -240 -48 0
v -240 -32 0
v -224 -32 0
v -240 -48 0
v -256 -48 0
v -256 -32 0
v -240 -32 0
v -256 -48 0
v -272 -48 0
v -272 -32 0
v -256 -32 0
v -272 -48 0
v -288 -48 0
v -288 -32 0
v -272 -32 0
v -288 -48 0
v -304 -48 0
v -304 -32 0
v -288 -32 0
v 0 -64 0
v -16 -64 0
v -16 -48 0
v 0 -48 0
v -16 -64 0
v -32 -64 0
v -32 -48 0
v -16 -48 0
v -32 -64 0
v -48 -64 0
v -48 -48 0
v -32 -48 0
v -48 -64 0
v -64 -64 0
v -64 -48 0
v -48 -48 0
v -64 -64 0
v -80 -64 0
v -80 -48 0
v -64 -48 0
v -80 -64 0
v -96 -64 0
v -96 -48 0
v -80 -48 0
v -96 -64 0
v -112 -64 0
v -112 -48 0
v -96 -48 0
v -112 -64 0
v -128 -64 0
v -128 -48 0
v -112 -48 0
v -128 -64 0
v -144 -64 0
v -144 -48 0
v -128 -48 0
v -144 -64 0
v -160 -64 0
v -160 -48 0
v -144 -48 0
v -224 -64 0
v -240 -64 0
v -240 -48 0
v -224 -48 0
v -240 -64 0
v -256 -64 0
v -256 -48 0
v -240 -48 0
v -256 -64 0
v -272 -64 0
v -272 -48 0
v -256 -48 0
v -272 -64 0
v -288 -64 0
v -288 -48 0
v -272 -48 0
v -288 -64 0
v -304 -64 0
v -304 -48 0
v -288 -48 0
v 0 -80 0
v -16 -80 0
v -16 -64 0
v 0 -64 0
v -16 -80 0
v -32 -80 0
v -32 -64 0
v -16 -64 0
v -32 -80 0
v -48 -80 0
v -48 -64 0
v -32 -64 0
v -48 -80 0
v -64 -80 0
v -64 -64 0
v -48 -64 0
v -64 -80 0
v -80 -80 0
v -80 -64 0
v -64 -64 0
v -80 -80 0
v -96 -80 0
v -96 -64 0
v -80 -64 0
v -96 -80 0
v -112 -80 0
v -112 -64 0
v -96 -64 0
v -112 -80 0
v -128 -80 0
v -128 -64 0
v -112 -64 0
v -128 -80 0
v -144 -80 0
v -144 -64 0
v -128 -64 0
v -144 -80 0
v -160 -80 0
v -160 -64 0
v -144 -64 0
v -224 -80 0
v -240 -80 0
v -240 -64 0
v -224 -64 0
v -240 -80 0
v -256 -80 0
v -256 -64 0
v -240 -64 0
v -256 -80 0
v -272 -80 0
v -272 -64 0
v -256 -64 0
v -272 -80 0
v -288 -80 0
v -288 -64 0
v -272 -64 0
v -288 -80 0
v -304 -80 0
v -304 -64 0
v -288 -64 0
v -224 -96 0
v -240 -96 0
v -240 -80 0
v -224 -80 0
v -240 -96 0
v -256 -96 0
v -256 -80 0
v -240 -80 0
v -256 -96 0
v -272 -96 0
v -272 -80 0
v -256 -80 0
v -272 -96 0
v -288 -96 0
v -288 -80 0
v -272 -80 0
v -288 -96 0
v -304 -96 0
v -304 -80 0
v -288 -80 0
v -256 -224 0
v -272 -224 0
v -272 -208 0
v -256 -208 0
v -272 -224 0
v -288 -224 0
v -288 -208 0
v -272 -208 0
v -288 -224 0
v -304 -224 0
v -304 -208 0
v -288 -208 0
v -304 -224 0
v -320 -224 0
v -320 -208 0
v -304 -208 0
v -256 -240 0
v -272 -240 0
v -272 -224 0
v -256 -224 0
v -272 -240 0
v -288 -240 0
v -288 -224 0
v -272 -224 0
v -288 -240 0
v -304 -240 0
v -304 -224 0
v -288 -224 0
v -304 -240 0
v -320 -240 0
v -320 -224 0
v -304 -224 0
v -256 -256 0
v -272 -256 0
v -272 -240 0
v -256 -240 0
v -272 -256 0
v -288 -256 0
v -288 -240 0
v -272 -240 0
v -288 -256 0
v -304 -256 0
v -304 -240 0
v -288 -240 0
v -304 -256 0
v -320 -256 0
v -320 -240 0
v -304 -240 0
v -256 -272 0
v -272 -272 0
v -272 -256 0
v -256 -256 0
v -272 -272 0
v -288 -272 0
v -288 -256 0
v -272 -256 0
v -288 -272 0
v -304 -272 0
v -304 -256 0
v -288 -256 0
v -304 -272 0
v -320 -272 0
v -320 -256 0
v -304 -256 0
v -256 -288 0
v -272 -288 0
v -272 -272 0
v -256 -272 0
v -272 -288 0
v -288 -288 0
v -288 -272 0
v -272 -272 0
v -288 -288 0
v -304 -288 0
v -304 -272 0
v -288 -272 0
v -304 -288 0
v -320 -288 0
v -320 -272 0
v -304 -272 0

# Texture cooridinates (Count = 126)
vt 0.15 0.9722222
vt 0.175 0.9722222
vt 0.175 1
vt 0.15 1
vt 0.2 0.9722222
vt 0.2 1
vt 0.225 0.9722222
vt 0.225 1
vt 0.25 0.9722222
vt 0.25 1
vt 0.275 0.9722222
vt 0.275 1
vt 0.325 0.8333333
vt 0.35 0.8333333
vt 0.35 0.8611111
vt 0.325 0.8611111
vt 0.375 0.8333333
vt 0.375 0.8611111
vt 0.45 0.3611111
vt 0.475 0.3611111
vt 0.475 0.3888889
vt 0.45 0.3888889
vt 0.5 0.3611111
vt 0.5 0.3888889
vt 0.525 0.3611111
vt 0.525 0.3888889
vt 0.55 0.3611111
vt 0.55 0.3888889
vt 0.575 0.3611111
vt 0.575 0.3888889
vt 0.15 0.9444444
vt 0.175 0.9444444
vt 0.2 0.9444444
vt 0.225 0.9444444
vt 0.25 0.9444444
vt 0.275 0.9444444
vt 0.325 0.8055556
vt 0.35 0.8055556
vt 0.375 0.8055556
vt 0.45 0.3333333
vt 0.475 0.3333333
vt 0.5 0.3333333
vt 0.525 0.3333333
vt 0.55 0.3333333
vt 0.575 0.3333333
vt 0.15 0.9166667
vt 0.175 0.9166667
vt 0.2 0.9166667
vt 0.225 0.9166667
vt 0.25 0.9166667
vt 0.275 0.9166667
vt 0.325 0.7777778
vt 0.35 0.7777778
vt 0.375 0.7777778
vt 0.45 0.3055556
vt 0.475 0.3055556
vt 0.5 0.3055556
vt 0.525 0.3055556
vt 0.55 0.3055556
vt 0.15 0.8888889
vt 0.175 0.8888889
vt 0.2 0.8888889
vt 0.225 0.8888889
vt 0.25 0.8888889
vt 0.275 0.8888889
vt 0.4 0.8611111
vt 0.425 0.8611111
vt 0.425 0.8888889
vt 0.4 0.8888889
vt 0.45 0.2777778
vt 0.475 0.2777778
vt 0.5 0.2777778
vt 0.6 0.4166667
vt 0.625 0.4166667
vt 0.625 0.4444444
vt 0.6 0.4444444
vt 0.65 0.4166667
vt 0.65 0.4444444
vt 0.15 0.8611111
vt 0.175 0.8611111
vt 0.2 0.8611111
vt 0.225 0.8611111
vt 0.25 0.8611111
vt 0.275 0.8611111
vt 0.45 0.8333333
vt 0.475 0.8333333
vt 0.475 0.8611111
vt 0.45 0.8611111
vt 0.45 0.25
vt 0.475 0.25
vt 0.6 0.3611111
vt 0.6 0.3888889
vt 0.625 0.3888889
vt 0.65 0.3888889
vt 0.45 0.2222222
vt 0.475 0.2222222
vt 0.6 0.3333333
vt 0.5 0.2222222
vt 0.525 0.2222222
vt 0.525 0.25
vt 0.5 0.25
vt 0.55 0.2222222
vt 0.55 0.25
vt 0.575 0.2222222
vt 0.575 0.25
vt 0.3 0.9722222
vt 0.3 1
vt 0.325 0.9722222
vt 0.325 1
vt 0.3 0.9444444
vt 0.325 0.9444444
vt 0.375 0.9444444
vt 0.4 0.9444444
vt 0.4 0.9722222
vt 0.375 0.9722222
vt 0.3 0.9166667
vt 0.325 0.9166667
vt 0.35 0.9166667
vt 0.375 0.9166667
vt 0.35 0.9444444
vt 0.3 0.8888889
vt 0.325 0.8888889
vt 0.35 0.8888889
vt 0.375 0.8888889
vt 0.4 0.9166667
vt 0.3 0.8611111

# Normal
vn 0 0 -1

# Mesh description
g Vila_mesh_0011

# Faces
f 1/1/1 2/2/1 3/3/1 4/4/1
f 5/2/1 6/5/1 7/6/1 8/3/1
f 9/5/1 10/7/1 11/8/1 12/6/1
f 13/7/1 14/9/1 15/10/1 16/8/1
f 17/9/1 18/11/1 19/12/1 20/10/1
f 21/1/1 22/2/1 23/3/1 24/4/1
f 25/2/1 26/5/1 27/6/1 28/3/1
f 29/5/1 30/7/1 31/8/1 32/6/1
f 33/7/1 34/9/1 35/10/1 36/8/1
f 37/9/1 38/11/1 39/12/1 40/10/1
f 41/13/1 42/14/1 43/15/1 44/16/1
f 45/14/1 46/17/1 47/18/1 48/15/1
f 49/19/1 50/20/1 51/21/1 52/22/1
f 53/20/1 54/23/1 55/24/1 56/21/1
f 57/23/1 58/25/1 59/26/1 60/24/1
f 61/25/1 62/27/1 63/28/1 64/26/1
f 65/27/1 66/29/1 67/30/1 68/28/1
f 69/31/1 70/32/1 71/2/1 72/1/1
f 73/32/1 74/33/1 75/5/1 76/2/1
f 77/33/1 78/34/1 79/7/1 80/5/1
f 81/34/1 82/35/1 83/9/1 84/7/1
f 85/35/1 86/36/1 87/11/1 88/9/1
f 89/31/1 90/32/1 91/2/1 92/1/1
f 93/32/1 94/33/1 95/5/1 96/2/1
f 97/33/1 98/34/1 99/7/1 100/5/1
f 101/34/1 102/35/1 103/9/1 104/7/1
f 105/35/1 106/36/1 107/11/1 108/9/1
f 109/37/1 110/38/1 111/14/1 112/13/1
f 113/38/1 114/39/1 115/17/1 116/14/1
f 117/40/1 118/41/1 119/20/1 120/19/1
f 121/41/1 122/42/1 123/23/1 124/20/1
f 125/42/1 126/43/1 127/25/1 128/23/1
f 129/43/1 130/44/1 131/27/1 132/25/1
f 133/44/1 134/45/1 135/29/1 136/27/1
f 137/46/1 138/47/1 139/32/1 140/31/1
f 141/47/1 142/48/1 143/33/1 144/32/1
f 145/48/1 146/49/1 147/34/1 148/33/1
f 149/49/1 150/50/1 151/35/1 152/34/1
f 153/50/1 154/51/1 155/36/1 156/35/1
f 157/46/1 158/47/1 159/32/1 160/31/1
f 161/47/1 162/48/1 163/33/1 164/32/1
f 165/48/1 166/49/1 167/34/1 168/33/1
f 169/49/1 170/50/1 171/35/1 172/34/1
f 173/50/1 174/51/1 175/36/1 176/35/1
f 177/52/1 178/53/1 179/38/1 180/37/1
f 181/53/1 182/54/1 183/39/1 184/38/1
f 185/55/1 186/56/1 187/41/1 188/40/1
f 189/56/1 190/57/1 191/42/1 192/41/1
f 193/57/1 194/58/1 195/43/1 196/42/1
f 197/58/1 198/59/1 199/44/1 200/43/1
f 201/56/1 202/55/1 203/40/1 204/41/1
f 205/60/1 206/61/1 207/47/1 208/46/1
f 209/61/1 210/62/1 211/48/1 212/47/1
f 213/62/1 214/63/1 215/49/1 216/48/1
f 217/63/1 218/64/1 219/50/1 220/49/1
f 221/64/1 222/65/1 223/51/1 224/50/1
f 225/60/1 226/61/1 227/47/1 228/46/1
f 229/61/1 230/62/1 231/48/1 232/47/1
f 233/66/1 234/67/1 235/68/1 236/69/1
f 237/63/1 238/64/1 239/50/1 240/49/1
f 241/64/1 242/65/1 243/51/1 244/50/1
f 245/70/1 246/71/1 247/56/1 248/55/1
f 249/71/1 250/72/1 251/57/1 252/56/1
f 253/73/1 254/74/1 255/75/1 256/76/1
f 257/74/1 258/77/1 259/78/1 260/75/1
f 261/71/1 262/70/1 263/55/1 264/56/1
f 265/79/1 266/80/1 267/61/1 268/60/1
f 269/80/1 270/81/1 271/62/1 272/61/1
f 273/81/1 274/82/1 275/63/1 276/62/1
f 277/82/1 278/83/1 279/64/1 280/63/1
f 281/83/1 282/84/1 283/65/1 284/64/1
f 285/79/1 286/80/1 287/61/1 288/60/1
f 289/80/1 290/81/1 291/62/1 292/61/1
f 293/85/1 294/86/1 295/87/1 296/88/1
f 297/82/1 298/83/1 299/64/1 300/63/1
f 301/83/1 302/84/1 303/65/1 304/64/1
f 305/89/1 306/90/1 307/71/1 308/70/1
f 309/29/1 310/91/1 311/92/1 312/30/1
f 313/92/1 314/93/1 315/74/1 316/73/1
f 317/93/1 318/94/1 319/77/1 320/74/1
f 321/90/1 322/89/1 323/70/1 324/71/1
f 325/95/1 326/96/1 327/90/1 328/89/1
f 329/45/1 330/97/1 331/91/1 332/29/1
f 333/98/1 334/99/1 335/100/1 336/101/1
f 337/99/1 338/102/1 339/103/1 340/100/1
f 341/102/1 342/104/1 343/105/1 344/103/1
f 345/11/1 346/106/1 347/107/1 348/12/1
f 349/106/1 350/108/1 351/109/1 352/107/1
f 353/7/1 354/9/1 355/10/1 356/8/1
f 357/9/1 358/11/1 359/12/1 360/10/1
f 361/36/1 362/110/1 363/106/1 364/11/1
f 365/110/1 366/111/1 367/108/1 368/106/1
f 369/34/1 370/35/1 371/9/1 372/7/1
f 373/112/1 374/113/1 375/114/1 376/115/1
f 377/51/1 378/116/1 379/110/1 380/36/1
f 381/116/1 382/117/1 383/111/1 384/110/1
f 385/118/1 386/119/1 387/112/1 388/120/1
f 389/50/1 390/51/1 391/36/1 392/35/1
f 393/65/1 394/121/1 395/116/1 396/51/1
f 397/121/1 398/122/1 399/117/1 400/116/1
f 401/122/1 402/123/1 403/118/1 404/117/1
f 405/124/1 406/69/1 407/125/1 408/119/1
f 409/84/1 410/126/1 411/121/1 412/65/1
f 413/126/1 414/16/1 415/122/1 416/121/1
f 417/15/1 418/18/1 419/124/1 420/123/1
f 421/18/1 422/66/1 423/69/1 424/124/1

