# Tiled2Unity generated file. Do not modify by hand.
# Wavefront file for 'Casa_mesh_0005.obj'

# Vertices (Count = 56)
v -80 -16 0
v -96 -16 0
v -96 0 0
v -80 0 0
v -96 -16 0
v -112 -16 0
v -112 0 0
v -96 0 0
v -32 -32 0
v -48 -32 0
v -48 -16 0
v -32 -16 0
v -48 -32 0
v -64 -32 0
v -64 -16 0
v -48 -16 0
v -80 -32 0
v -96 -32 0
v -96 -16 0
v -80 -16 0
v -96 -32 0
v -112 -32 0
v -112 -16 0
v -96 -16 0
v -48 -48 0
v -64 -48 0
v -64 -32 0
v -48 -32 0
v -80 -48 0
v -96 -48 0
v -96 -32 0
v -80 -32 0
v -96 -48 0
v -112 -48 0
v -112 -32 0
v -96 -32 0
v -80 -64 0
v -96 -64 0
v -96 -48 0
v -80 -48 0
v -96 -64 0
v -112 -64 0
v -112 -48 0
v -96 -48 0
v -80 -80 0
v -96 -80 0
v -96 -64 0
v -80 -64 0
v -96 -80 0
v -112 -80 0
v -112 -64 0
v -96 -64 0
v -96 -96 0
v -112 -96 0
v -112 -80 0
v -96 -80 0

# Texture cooridinates (Count = 28)
vt 0.3 0.56
vt 0.325 0.56
vt 0.325 0.6
vt 0.3 0.6
vt 0.35 0.56
vt 0.35 0.6
vt 0 0.72
vt 0.025 0.72
vt 0.025 0.76
vt 0 0.76
vt 0.275 0.52
vt 0.3 0.52
vt 0.275 0.56
vt 0.325 0.52
vt 0.35 0.52
vt 0.25 0.48
vt 0.275 0.48
vt 0.25 0.52
vt 0.3 0.48
vt 0.375 0.8
vt 0.4 0.8
vt 0.4 0.84
vt 0.375 0.84
vt 0.375 0.76
vt 0.4 0.76
vt 0.35 0.72
vt 0.375 0.72
vt 0.35 0.76

# Normal
vn 0 0 -1

# Mesh description
g Casa_mesh_0005

# Faces
f 1/1/1 2/2/1 3/3/1 4/4/1
f 5/2/1 6/5/1 7/6/1 8/3/1
f 9/7/1 10/8/1 11/9/1 12/10/1
f 13/11/1 14/12/1 15/1/1 16/13/1
f 17/12/1 18/14/1 19/2/1 20/1/1
f 21/14/1 22/15/1 23/5/1 24/2/1
f 25/11/1 26/12/1 27/1/1 28/13/1
f 29/16/1 30/17/1 31/11/1 32/18/1
f 33/17/1 34/19/1 35/12/1 36/11/1
f 37/20/1 38/21/1 39/22/1 40/23/1
f 41/20/1 42/21/1 43/22/1 44/23/1
f 45/24/1 46/25/1 47/21/1 48/20/1
f 49/24/1 50/25/1 51/21/1 52/20/1
f 53/26/1 54/27/1 55/24/1 56/28/1

