# Tiled2Unity generated file. Do not modify by hand.
# Wavefront file for 'Casa_mesh_0004.obj'

# Vertices (Count = 52)
v -16 -16 0
v -32 -16 0
v -32 0 0
v -16 0 0
v -16 -32 0
v -32 -32 0
v -32 -16 0
v -16 -16 0
v -48 -32 0
v -64 -32 0
v -64 -16 0
v -48 -16 0
v -16 -48 0
v -32 -48 0
v -32 -32 0
v -16 -32 0
v -48 -48 0
v -64 -48 0
v -64 -32 0
v -48 -32 0
v -16 -64 0
v -32 -64 0
v -32 -48 0
v -16 -48 0
v -48 -64 0
v -64 -64 0
v -64 -48 0
v -48 -48 0
v -16 -80 0
v -32 -80 0
v -32 -64 0
v -16 -64 0
v -48 -80 0
v -64 -80 0
v -64 -64 0
v -48 -64 0
v -80 -96 0
v -96 -96 0
v -96 -80 0
v -80 -80 0
v -96 -96 0
v -112 -96 0
v -112 -80 0
v -96 -80 0
v -80 -112 0
v -96 -112 0
v -96 -96 0
v -80 -96 0
v -96 -112 0
v -112 -112 0
v -112 -96 0
v -96 -96 0

# Texture cooridinates (Count = 36)
vt 0.05 0.56
vt 0.075 0.56
vt 0.075 0.6
vt 0.05 0.6
vt 0.05 0.52
vt 0.075 0.52
vt 0.15 0.48
vt 0.175 0.48
vt 0.175 0.52
vt 0.15 0.52
vt 0.4 0.92
vt 0.425 0.92
vt 0.425 0.96
vt 0.4 0.96
vt 0.15 0.44
vt 0.175 0.44
vt 0.4 0.88
vt 0.425 0.88
vt 0.15 0.4
vt 0.175 0.4
vt 0.4 0.84
vt 0.425 0.84
vt 0.15 0.36
vt 0.175 0.36
vt 0.325 0.92
vt 0.35 0.92
vt 0.35 0.96
vt 0.325 0.96
vt 0.375 0.92
vt 0.375 0.96
vt 0.325 0.84
vt 0.35 0.84
vt 0.35 0.88
vt 0.325 0.88
vt 0.375 0.84
vt 0.375 0.88

# Normal
vn 0 0 -1

# Mesh description
g Casa_mesh_0004

# Faces
f 1/1/1 2/2/1 3/3/1 4/4/1
f 5/5/1 6/6/1 7/2/1 8/1/1
f 9/7/1 10/8/1 11/9/1 12/10/1
f 13/11/1 14/12/1 15/13/1 16/14/1
f 17/15/1 18/16/1 19/8/1 20/7/1
f 21/17/1 22/18/1 23/12/1 24/11/1
f 25/19/1 26/20/1 27/16/1 28/15/1
f 29/21/1 30/22/1 31/18/1 32/17/1
f 33/23/1 34/24/1 35/20/1 36/19/1
f 37/25/1 38/26/1 39/27/1 40/28/1
f 41/29/1 42/11/1 43/14/1 44/30/1
f 45/31/1 46/32/1 47/33/1 48/34/1
f 49/35/1 50/21/1 51/17/1 52/36/1

