# Tiled2Unity generated file. Do not modify by hand.
# Wavefront file for 'Casa_mesh_0007.obj'

# Vertices (Count = 12)
v -32 -112 0
v -48 -112 0
v -48 -96 0
v -32 -96 0
v -48 -112 0
v -64 -112 0
v -64 -96 0
v -48 -96 0
v -64 -112 0
v -80 -112 0
v -80 -96 0
v -64 -96 0

# Texture cooridinates (Count = 8)
vt 0.375 0.6666666
vt 0.4 0.6666666
vt 0.4 0.6944444
vt 0.375 0.6944444
vt 0.425 0.6666666
vt 0.425 0.6944444
vt 0.45 0.6666666
vt 0.45 0.6944444

# Normal
vn 0 0 -1

# Mesh description
g Casa_mesh_0007

# Faces
f 1/1/1 2/2/1 3/3/1 4/4/1
f 5/2/1 6/5/1 7/6/1 8/3/1
f 9/5/1 10/7/1 11/8/1 12/6/1

