# Tiled2Unity generated file. Do not modify by hand.
# Wavefront file for 'Loja_mesh_0006.obj'

# Vertices (Count = 40)
v -1 -1 -0.1428571
v -2 -1 -0.1428571
v -2 0 -0.1428571
v -1 0 -0.1428571
v -2 -1 -0.1428571
v -3 -1 -0.1428571
v -3 0 -0.1428571
v -2 0 -0.1428571
v -3 -1 -0.1428571
v -4 -1 -0.1428571
v -4 0 -0.1428571
v -3 0 -0.1428571
v -4 -1 -0.1428571
v -5 -1 -0.1428571
v -5 0 -0.1428571
v -4 0 -0.1428571
v -5 -1 -0.1428571
v -6 -1 -0.1428571
v -6 0 -0.1428571
v -5 0 -0.1428571
v -1 -2 -0.2857143
v -2 -2 -0.2857143
v -2 -1 -0.2857143
v -1 -1 -0.2857143
v -2 -2 -0.2857143
v -3 -2 -0.2857143
v -3 -1 -0.2857143
v -2 -1 -0.2857143
v -3 -2 -0.2857143
v -4 -2 -0.2857143
v -4 -1 -0.2857143
v -3 -1 -0.2857143
v -4 -2 -0.2857143
v -5 -2 -0.2857143
v -5 -1 -0.2857143
v -4 -1 -0.2857143
v -5 -2 -0.2857143
v -6 -2 -0.2857143
v -6 -1 -0.2857143
v -5 -1 -0.2857143

# Texture cooridinates (Count = 12)
vt 0.25 0.72
vt 0.275 0.72
vt 0.275 0.76
vt 0.25 0.76
vt 0.325 0.6
vt 0.35 0.6
vt 0.35 0.64
vt 0.325 0.64
vt 0.225 0.56
vt 0.25 0.56
vt 0.25 0.6
vt 0.225 0.6

# Normal
vn 0 0 -1

# Mesh description
g Loja_mesh_0006

# Faces
f 1/1/1 2/2/1 3/3/1 4/4/1
f 5/5/1 6/6/1 7/7/1 8/8/1
f 9/1/1 10/2/1 11/3/1 12/4/1
f 13/9/1 14/10/1 15/11/1 16/12/1
f 17/1/1 18/2/1 19/3/1 20/4/1
f 21/1/1 22/2/1 23/3/1 24/4/1
f 25/9/1 26/10/1 27/11/1 28/12/1
f 29/5/1 30/6/1 31/7/1 32/8/1
f 33/9/1 34/10/1 35/11/1 36/12/1
f 37/1/1 38/2/1 39/3/1 40/4/1

