# Tiled2Unity generated file. Do not modify by hand.
# Wavefront file for 'Loja_mesh_0003.obj'

# Vertices (Count = 96)
v 0 -1 -0.1428571
v -1 -1 -0.1428571
v -1 0 -0.1428571
v 0 0 -0.1428571
v -1 -1 -0.1428571
v -2 -1 -0.1428571
v -2 0 -0.1428571
v -1 0 -0.1428571
v -2 -1 -0.1428571
v -3 -1 -0.1428571
v -3 0 -0.1428571
v -2 0 -0.1428571
v -3 -1 -0.1428571
v -4 -1 -0.1428571
v -4 0 -0.1428571
v -3 0 -0.1428571
v -4 -1 -0.1428571
v -5 -1 -0.1428571
v -5 0 -0.1428571
v -4 0 -0.1428571
v -5 -1 -0.1428571
v -6 -1 -0.1428571
v -6 0 -0.1428571
v -5 0 -0.1428571
v -6 -1 -0.1428571
v -7 -1 -0.1428571
v -7 0 -0.1428571
v -6 0 -0.1428571
v 0 -2 -0.2857143
v -1 -2 -0.2857143
v -1 -1 -0.2857143
v 0 -1 -0.2857143
v -1 -2 -0.2857143
v -2 -2 -0.2857143
v -2 -1 -0.2857143
v -1 -1 -0.2857143
v -2 -2 -0.2857143
v -3 -2 -0.2857143
v -3 -1 -0.2857143
v -2 -1 -0.2857143
v -3 -2 -0.2857143
v -4 -2 -0.2857143
v -4 -1 -0.2857143
v -3 -1 -0.2857143
v -4 -2 -0.2857143
v -5 -2 -0.2857143
v -5 -1 -0.2857143
v -4 -1 -0.2857143
v -5 -2 -0.2857143
v -6 -2 -0.2857143
v -6 -1 -0.2857143
v -5 -1 -0.2857143
v -6 -2 -0.2857143
v -7 -2 -0.2857143
v -7 -1 -0.2857143
v -6 -1 -0.2857143
v 0 -3 -0.4285714
v -1 -3 -0.4285714
v -1 -2 -0.4285714
v 0 -2 -0.4285714
v -1 -3 -0.4285714
v -2 -3 -0.4285714
v -2 -2 -0.4285714
v -1 -2 -0.4285714
v -2 -3 -0.4285714
v -3 -3 -0.4285714
v -3 -2 -0.4285714
v -2 -2 -0.4285714
v -3 -3 -0.4285714
v -4 -3 -0.4285714
v -4 -2 -0.4285714
v -3 -2 -0.4285714
v -4 -3 -0.4285714
v -5 -3 -0.4285714
v -5 -2 -0.4285714
v -4 -2 -0.4285714
v -5 -3 -0.4285714
v -6 -3 -0.4285714
v -6 -2 -0.4285714
v -5 -2 -0.4285714
v -6 -3 -0.4285714
v -7 -3 -0.4285714
v -7 -2 -0.4285714
v -6 -2 -0.4285714
v -2 -7 -1
v -3 -7 -1
v -3 -6 -1
v -2 -6 -1
v -3 -7 -1
v -4 -7 -1
v -4 -6 -1
v -3 -6 -1
v -4 -7 -1
v -5 -7 -1
v -5 -6 -1
v -4 -6 -1

# Texture cooridinates (Count = 14)
vt 0.35 0.8888889
vt 0.325 0.8888889
vt 0.325 0.8611111
vt 0.35 0.8611111
vt 0.35 0.9166667
vt 0.325 0.9166667
vt 0.275 0.5
vt 0.3 0.5
vt 0.3 0.5277778
vt 0.275 0.5277778
vt 0.325 0.5
vt 0.325 0.5277778
vt 0.35 0.5
vt 0.35 0.5277778

# Normal
vn 0 0 -1

# Mesh description
g Loja_mesh_0003

# Faces
f 1/1/1 2/2/1 3/3/1 4/4/1
f 5/1/1 6/2/1 7/3/1 8/4/1
f 9/1/1 10/2/1 11/3/1 12/4/1
f 13/1/1 14/2/1 15/3/1 16/4/1
f 17/1/1 18/2/1 19/3/1 20/4/1
f 21/1/1 22/2/1 23/3/1 24/4/1
f 25/1/1 26/2/1 27/3/1 28/4/1
f 29/2/1 30/1/1 31/5/1 32/6/1
f 33/2/1 34/1/1 35/5/1 36/6/1
f 37/2/1 38/1/1 39/5/1 40/6/1
f 41/2/1 42/1/1 43/5/1 44/6/1
f 45/2/1 46/1/1 47/5/1 48/6/1
f 49/2/1 50/1/1 51/5/1 52/6/1
f 53/2/1 54/1/1 55/5/1 56/6/1
f 57/3/1 58/4/1 59/1/1 60/2/1
f 61/3/1 62/4/1 63/1/1 64/2/1
f 65/3/1 66/4/1 67/1/1 68/2/1
f 69/3/1 70/4/1 71/1/1 72/2/1
f 73/3/1 74/4/1 75/1/1 76/2/1
f 77/3/1 78/4/1 79/1/1 80/2/1
f 81/3/1 82/4/1 83/1/1 84/2/1
f 85/7/1 86/8/1 87/9/1 88/10/1
f 89/8/1 90/11/1 91/12/1 92/9/1
f 93/11/1 94/13/1 95/14/1 96/12/1

