# Tiled2Unity generated file. Do not modify by hand.
# Wavefront file for 'Loja_mesh_0002.obj'

# Vertices (Count = 56)
v 0 -1 -0.1428571
v -1 -1 -0.1428571
v -1 0 -0.1428571
v 0 0 -0.1428571
v -1 -1 -0.1428571
v -2 -1 -0.1428571
v -2 0 -0.1428571
v -1 0 -0.1428571
v -2 -1 -0.1428571
v -3 -1 -0.1428571
v -3 0 -0.1428571
v -2 0 -0.1428571
v -3 -1 -0.1428571
v -4 -1 -0.1428571
v -4 0 -0.1428571
v -3 0 -0.1428571
v -4 -1 -0.1428571
v -5 -1 -0.1428571
v -5 0 -0.1428571
v -4 0 -0.1428571
v -5 -1 -0.1428571
v -6 -1 -0.1428571
v -6 0 -0.1428571
v -5 0 -0.1428571
v -6 -1 -0.1428571
v -7 -1 -0.1428571
v -7 0 -0.1428571
v -6 0 -0.1428571
v 0 -3 -0.4285714
v -1 -3 -0.4285714
v -1 -2 -0.4285714
v 0 -2 -0.4285714
v -1 -3 -0.4285714
v -2 -3 -0.4285714
v -2 -2 -0.4285714
v -1 -2 -0.4285714
v -2 -3 -0.4285714
v -3 -3 -0.4285714
v -3 -2 -0.4285714
v -2 -2 -0.4285714
v -3 -3 -0.4285714
v -4 -3 -0.4285714
v -4 -2 -0.4285714
v -3 -2 -0.4285714
v -4 -3 -0.4285714
v -5 -3 -0.4285714
v -5 -2 -0.4285714
v -4 -2 -0.4285714
v -5 -3 -0.4285714
v -6 -3 -0.4285714
v -6 -2 -0.4285714
v -5 -2 -0.4285714
v -6 -3 -0.4285714
v -7 -3 -0.4285714
v -7 -2 -0.4285714
v -6 -2 -0.4285714

# Texture cooridinates (Count = 4)
vt 0.325 0.8611111
vt 0.35 0.8611111
vt 0.35 0.8888889
vt 0.325 0.8888889

# Normal
vn 0 0 -1

# Mesh description
g Loja_mesh_0002

# Faces
f 1/1/1 2/2/1 3/3/1 4/4/1
f 5/1/1 6/2/1 7/3/1 8/4/1
f 9/1/1 10/2/1 11/3/1 12/4/1
f 13/1/1 14/2/1 15/3/1 16/4/1
f 17/1/1 18/2/1 19/3/1 20/4/1
f 21/1/1 22/2/1 23/3/1 24/4/1
f 25/1/1 26/2/1 27/3/1 28/4/1
f 29/3/1 30/4/1 31/1/1 32/2/1
f 33/3/1 34/4/1 35/1/1 36/2/1
f 37/3/1 38/4/1 39/1/1 40/2/1
f 41/3/1 42/4/1 43/1/1 44/2/1
f 45/3/1 46/4/1 47/1/1 48/2/1
f 49/3/1 50/4/1 51/1/1 52/2/1
f 53/3/1 54/4/1 55/1/1 56/2/1

