# Tiled2Unity generated file. Do not modify by hand.
# Wavefront file for 'Loja_mesh_0005.obj'

# Vertices (Count = 84)
v 0 -4 -0.5714286
v -1 -4 -0.5714286
v -1 -3 -0.5714286
v 0 -3 -0.5714286
v -1 -4 -0.5714286
v -2 -4 -0.5714286
v -2 -3 -0.5714286
v -1 -3 -0.5714286
v -2 -4 -0.5714286
v -3 -4 -0.5714286
v -3 -3 -0.5714286
v -2 -3 -0.5714286
v -3 -4 -0.5714286
v -4 -4 -0.5714286
v -4 -3 -0.5714286
v -3 -3 -0.5714286
v -4 -4 -0.5714286
v -5 -4 -0.5714286
v -5 -3 -0.5714286
v -4 -3 -0.5714286
v -5 -4 -0.5714286
v -6 -4 -0.5714286
v -6 -3 -0.5714286
v -5 -3 -0.5714286
v -6 -4 -0.5714286
v -7 -4 -0.5714286
v -7 -3 -0.5714286
v -6 -3 -0.5714286
v 0 -5 -0.7142857
v -1 -5 -0.7142857
v -1 -4 -0.7142857
v 0 -4 -0.7142857
v -1 -5 -0.7142857
v -2 -5 -0.7142857
v -2 -4 -0.7142857
v -1 -4 -0.7142857
v -2 -5 -0.7142857
v -3 -5 -0.7142857
v -3 -4 -0.7142857
v -2 -4 -0.7142857
v -3 -5 -0.7142857
v -4 -5 -0.7142857
v -4 -4 -0.7142857
v -3 -4 -0.7142857
v -4 -5 -0.7142857
v -5 -5 -0.7142857
v -5 -4 -0.7142857
v -4 -4 -0.7142857
v -5 -5 -0.7142857
v -6 -5 -0.7142857
v -6 -4 -0.7142857
v -5 -4 -0.7142857
v -6 -5 -0.7142857
v -7 -5 -0.7142857
v -7 -4 -0.7142857
v -6 -4 -0.7142857
v 0 -6 -0.8571429
v -1 -6 -0.8571429
v -1 -5 -0.8571429
v 0 -5 -0.8571429
v -1 -6 -0.8571429
v -2 -6 -0.8571429
v -2 -5 -0.8571429
v -1 -5 -0.8571429
v -2 -6 -0.8571429
v -3 -6 -0.8571429
v -3 -5 -0.8571429
v -2 -5 -0.8571429
v -3 -6 -0.8571429
v -4 -6 -0.8571429
v -4 -5 -0.8571429
v -3 -5 -0.8571429
v -4 -6 -0.8571429
v -5 -6 -0.8571429
v -5 -5 -0.8571429
v -4 -5 -0.8571429
v -5 -6 -0.8571429
v -6 -6 -0.8571429
v -6 -5 -0.8571429
v -5 -5 -0.8571429
v -6 -6 -0.8571429
v -7 -6 -0.8571429
v -7 -5 -0.8571429
v -6 -5 -0.8571429

# Texture cooridinates (Count = 26)
vt 0.5 0.2777778
vt 0.525 0.2777778
vt 0.525 0.3055556
vt 0.5 0.3055556
vt 0.575 0.4166667
vt 0.6 0.4166667
vt 0.6 0.4444444
vt 0.575 0.4444444
vt 0.425 0.2777778
vt 0.45 0.2777778
vt 0.45 0.3055556
vt 0.425 0.3055556
vt 0.575 0.3611111
vt 0.6 0.3611111
vt 0.6 0.3888889
vt 0.575 0.3888889
vt 0.425 0.25
vt 0.45 0.25
vt 0.575 0.3333333
vt 0.6 0.3333333
vt 0.5 0.2222222
vt 0.525 0.2222222
vt 0.525 0.25
vt 0.5 0.25
vt 0.55 0.2222222
vt 0.55 0.25

# Normal
vn 0 0 -1

# Mesh description
g Loja_mesh_0005

# Faces
f 1/1/1 2/2/1 3/3/1 4/4/1
f 5/5/1 6/6/1 7/7/1 8/8/1
f 9/9/1 10/10/1 11/11/1 12/12/1
f 13/5/1 14/6/1 15/7/1 16/8/1
f 17/9/1 18/10/1 19/11/1 20/12/1
f 21/5/1 22/6/1 23/7/1 24/8/1
f 25/1/1 26/2/1 27/3/1 28/4/1
f 29/13/1 30/14/1 31/15/1 32/16/1
f 33/16/1 34/15/1 35/6/1 36/5/1
f 37/17/1 38/18/1 39/10/1 40/9/1
f 41/16/1 42/15/1 43/6/1 44/5/1
f 45/17/1 46/18/1 47/10/1 48/9/1
f 49/16/1 50/15/1 51/6/1 52/5/1
f 53/13/1 54/14/1 55/15/1 56/16/1
f 57/19/1 58/20/1 59/14/1 60/13/1
f 61/21/1 62/22/1 63/23/1 64/24/1
f 65/21/1 66/22/1 67/23/1 68/24/1
f 69/21/1 70/22/1 71/23/1 72/24/1
f 73/21/1 74/22/1 75/23/1 76/24/1
f 77/22/1 78/25/1 79/26/1 80/23/1
f 81/19/1 82/20/1 83/14/1 84/13/1

